<svg width="976" height="476" viewBox="0 0 976 476" fill="none" xmlns="http://www.w3.org/2000/svg">
<path opacity="0.2" d="M55.5599 23.8995L55.4002 24.02L55.5589 24.2303L55.7188 24.021L55.5599 23.8995ZM65.0799 11.4395L65.2388 11.561L65.3437 11.4237L65.2232 11.3L65.0799 11.4395ZM30.4999 19.2095L30.6459 19.3462L30.4999 19.2095ZM30.3599 33.1395L30.4968 32.9935L30.4901 32.9877L30.3599 33.1395ZM41.5599 38.4595L41.4923 38.6478L41.4949 38.6487L41.5599 38.4595ZM60.4599 47.8395L60.3247 47.987L60.3265 47.9886L60.4599 47.8395ZM59.4099 89.6295L59.5467 89.7754L59.4099 89.6295ZM3.7599 80.4595L3.62193 80.3147L3.49893 80.432L3.59471 80.5723L3.7599 80.4595ZM15.6599 69.1195L15.8396 69.0317L15.7196 68.7863L15.5219 68.9747L15.6599 69.1195ZM24.1999 78.4995L24.2982 78.3253L24.1999 78.4995ZM46.0399 60.2995L46.1786 60.1553L46.175 60.1521L46.0399 60.2995ZM31.6199 53.4395L31.6846 53.2503L31.6839 53.25L31.6199 53.4395ZM16.0799 45.3195L16.213 45.1703L16.211 45.1685L16.0799 45.3195ZM97.5999 2.61953V2.41953H97.4337L97.4033 2.58298L97.5999 2.61953ZM80.2399 95.9995L80.0433 95.963L79.9993 96.1995H80.2399V95.9995ZM110.76 2.61953L110.944 2.54248L110.893 2.41953H110.76V2.61953ZM135.54 61.9795L135.355 62.0566L135.536 62.489L135.723 62.0595L135.54 61.9795ZM161.44 2.61953V2.41953H161.309L161.257 2.53955L161.44 2.61953ZM174.6 2.61953L174.797 2.58641L174.769 2.41953H174.6V2.61953ZM190.28 95.9995V96.1995H190.516L190.477 95.9664L190.28 95.9995ZM171.8 95.9995L171.602 96.0284L171.627 96.1995H171.8V95.9995ZM163.4 38.4595L163.598 38.4306L163.497 37.7368L163.217 38.3797L163.4 38.4595ZM138.34 95.9995V96.1995H138.471L138.523 96.0794L138.34 95.9995ZM132.18 95.9995L131.995 96.0764L132.046 96.1995H132.18V95.9995ZM108.24 38.4595L108.425 38.3827L108.156 37.7384L108.043 38.4269L108.24 38.4595ZM98.7199 95.9995V96.1995H98.8895L98.9172 96.0322L98.7199 95.9995ZM272.36 95.9995L272.176 96.0772L272.227 96.1995H272.36V95.9995ZM264.1 76.3995L264.284 76.3219L264.233 76.1995H264.1V76.3995ZM291.96 95.9995V96.1995H292.26L292.144 95.9223L291.96 95.9995ZM252.9 2.61953L253.084 2.54235L253.033 2.41953H252.9V2.61953ZM238.62 2.61953V2.41953H238.488L238.436 2.54048L238.62 2.61953ZM198.44 95.9995L198.256 95.9205L198.136 96.1995H198.44V95.9995ZM218.18 95.9995V96.1995H218.313L218.364 96.0772L218.18 95.9995ZM226.44 76.3995V76.1995H226.307L226.256 76.3219L226.44 76.3995ZM245.48 27.9595L245.666 27.8859L245.48 27.4161L245.294 27.8859L245.48 27.9595ZM258.78 61.5595V61.7595H259.074L258.966 61.4859L258.78 61.5595ZM232.18 61.5595L231.994 61.4859L231.886 61.7595H232.18V61.5595ZM304.88 2.61953V2.41953H304.68V2.61953H304.88ZM304.88 95.9995H304.68V96.1995H304.88V95.9995ZM323.08 95.9995V96.1995H323.28V95.9995H323.08ZM323.08 58.4795V58.2795H322.88V58.4795H323.08ZM325.32 58.4795L325.487 58.3689L325.427 58.2795H325.32V58.4795ZM350.24 95.9995L350.073 96.1102L350.133 96.1995H350.24V95.9995ZM372.92 95.9995V96.1995H373.317L373.081 95.8805L372.92 95.9995ZM343.8 56.6595L343.763 56.4629L343.449 56.5214L343.639 56.7785L343.8 56.6595ZM354.02 52.5995L353.907 52.4341L353.905 52.4357L354.02 52.5995ZM355.7 9.61953L355.829 9.46702L355.828 9.46589L355.7 9.61953ZM323.08 45.5995H322.88V45.7995H323.08V45.5995ZM323.08 17.4595V17.2595H322.88V17.4595H323.08ZM332.67 45.2495L332.638 45.0521L332.67 45.2495ZM338.34 43.7095L338.404 43.8989L338.34 43.7095ZM344.01 39.3695L343.845 39.2561L344.01 39.3695ZM332.88 17.7395L332.853 17.9378L332.88 17.7395ZM437.64 18.2995V18.4995H437.84V18.2995H437.64ZM416.64 18.2995V18.0995H416.44V18.2995H416.64ZM437.64 2.61953H437.84V2.41953H437.64V2.61953ZM377.44 2.61953V2.41953H377.24V2.61953H377.44ZM377.44 18.2995H377.24V18.4995H377.44V18.2995ZM398.44 18.2995H398.64V18.0995H398.44V18.2995ZM398.44 95.9995H398.24V96.1995H398.44V95.9995ZM416.64 95.9995V96.1995H416.84V95.9995H416.64ZM486.12 18.2995V18.0995H485.92V18.2995H486.12ZM507.12 18.2995V18.4995H507.32V18.2995H507.12ZM486.12 95.9995V96.1995H486.32V95.9995H486.12ZM467.92 95.9995H467.72V96.1995H467.92V95.9995ZM467.92 18.2995H468.12V18.0995H467.92V18.2995ZM446.92 18.2995H446.72V18.4995H446.92V18.2995ZM446.92 2.61953V2.41953H446.72V2.61953H446.92ZM507.12 2.61953H507.32V2.41953H507.12V2.61953ZM520.6 2.61953V2.41953H520.4V2.61953H520.6ZM520.6 95.9995H520.4V96.1995H520.6V95.9995ZM538.8 95.9995V96.1995H539V95.9995H538.8ZM538.8 58.4795V58.2795H538.6V58.4795H538.8ZM541.04 58.4795L541.207 58.3689L541.147 58.2795H541.04V58.4795ZM565.96 95.9995L565.793 96.1102L565.853 96.1995H565.96V95.9995ZM588.64 95.9995V96.1995H589.037L588.801 95.8805L588.64 95.9995ZM559.52 56.6595L559.483 56.4629L559.169 56.5214L559.359 56.7785L559.52 56.6595ZM569.74 52.5995L569.628 52.4341L569.625 52.4357L569.74 52.5995ZM571.42 9.61953L571.549 9.46702L571.548 9.46589L571.42 9.61953ZM538.8 45.5995H538.6V45.7995H538.8V45.5995ZM538.8 17.4595V17.2595H538.6V17.4595H538.8ZM548.39 45.2495L548.422 45.447L548.39 45.2495ZM554.06 43.7095L554.124 43.8989L554.06 43.7095ZM559.73 39.3695L559.565 39.2561L559.73 39.3695ZM554.2 19.2095L554.264 19.0202L554.2 19.2095ZM548.6 17.7395L548.573 17.9378L548.6 17.7395ZM654.76 2.61953H654.96V2.41953H654.76V2.61953ZM654.76 18.2995V18.4995H654.96V18.2995H654.76ZM602.96 2.61953V2.41953H602.76V2.61953H602.96ZM602.96 95.9995H602.76V96.1995H602.96V95.9995ZM654.76 95.9995V96.1995H654.96V95.9995H654.76ZM654.76 80.3195H654.96V80.1195H654.76V80.3195ZM621.16 80.3195H620.96V80.5195H621.16V80.3195ZM621.16 54.8395V54.6395H620.96V54.8395H621.16ZM653.36 54.8395V55.0395H653.56V54.8395H653.36ZM653.36 39.1595H653.56V38.9595H653.36V39.1595ZM621.16 39.1595H620.96V39.3595H621.16V39.1595ZM621.16 18.2995V18.0995H620.96V18.2995H621.16ZM674.4 95.9995H674.2V96.1995H674.4V95.9995ZM692.6 95.9995V96.1995H692.8V95.9995H692.6ZM674.4 2.61953V2.41953H674.2V2.61953H674.4ZM687 2.61953L687.148 2.48473L687.088 2.41953H687V2.61953ZM743.84 64.9195L743.692 65.0543L744.04 65.4355V64.9195H743.84ZM743.84 2.61953V2.41953H743.64V2.61953H743.84ZM762.04 2.61953H762.24V2.41953H762.04V2.61953ZM762.04 95.9995V96.1995H762.24V95.9995H762.04ZM749.44 95.9995L749.292 96.1342L749.352 96.1995H749.44V95.9995ZM692.6 33.5595L692.748 33.4249L692.4 33.0427V33.5595H692.6ZM785.32 2.61953V2.41953H785.12V2.61953H785.32ZM785.32 95.9995H785.12V96.1995H785.32V95.9995ZM828.16 94.1795L828.205 94.3743L828.16 94.1795ZM843.56 87.0395L843.445 86.8758L843.445 86.876L843.56 87.0395ZM857.63 27.9595L857.449 28.0459L857.63 27.9595ZM844.4 11.7195L844.52 11.5598L844.519 11.5592L844.4 11.7195ZM829 4.50953L829.044 4.31457L829 4.50953ZM803.52 80.3195H803.32V80.5195H803.52V80.3195ZM803.52 18.2995V18.0995H803.32V18.2995H803.52ZM831.94 74.1595L831.823 73.9971L831.823 73.9973L831.94 74.1595ZM840.48 63.5895L840.298 63.5055L840.48 63.5895ZM840.55 35.3095L840.732 35.2271V35.2271L840.55 35.3095ZM832.08 24.4595L832.202 24.301L832.199 24.2992L832.08 24.4595ZM936.56 11.4395L936.719 11.561L936.824 11.4237L936.703 11.3L936.56 11.4395ZM927.04 23.8995L926.88 24.02L927.039 24.2303L927.199 24.021L927.04 23.8995ZM887.56 45.3195L887.693 45.1703L887.691 45.1685L887.56 45.3195ZM903.1 53.4395L903.165 53.2503L903.164 53.25L903.1 53.4395ZM917.52 60.2995L917.659 60.1553L917.655 60.1521L917.52 60.2995ZM917.1 78.0095L916.968 77.8593L917.1 78.0095ZM887.14 69.1195L887.32 69.0317L887.2 68.7863L887.002 68.9747L887.14 69.1195ZM875.24 80.4595L875.102 80.3147L874.979 80.432L875.075 80.5723L875.24 80.4595ZM930.89 89.6295L931.027 89.7754L930.89 89.6295ZM931.94 47.8395L931.805 47.987L931.807 47.9886L931.94 47.8395ZM913.04 38.4595L912.972 38.6478L912.975 38.6487L913.04 38.4595ZM901.84 33.1395L901.977 32.9935L901.97 32.9877L901.84 33.1395ZM957.04 94.7395L956.895 94.8779L956.902 94.8841L957.04 94.7395ZM957.11 79.1295L957.251 79.271V79.271L957.11 79.1295ZM972.65 79.1295L972.508 79.271V79.271L972.65 79.1295ZM972.65 94.6695L972.791 94.811V94.811L972.65 94.6695ZM9.6399 181.62V181.42H9.4399V181.62H9.6399ZM9.6399 275H9.4399V275.2H9.6399V275ZM64.6599 267.44L64.7925 267.589L64.7933 267.589L64.6599 267.44ZM65.9199 231.04L66.0583 230.895L66.0572 230.894L65.9199 231.04ZM53.7399 225.16L53.6422 224.985L53.1377 225.268L53.7089 225.357L53.7399 225.16ZM55.5599 187.5L55.4371 187.657L55.4375 187.658L55.5599 187.5ZM27.8399 220.4H27.6399V220.6H27.8399V220.4ZM27.8399 196.46V196.26H27.6399V196.46H27.8399ZM35.6099 220.33L35.5982 220.13H35.5982L35.6099 220.33ZM39.1099 219.56L39.1679 219.751H39.1679L39.1099 219.56ZM43.0299 217.67L42.911 217.509V217.509L43.0299 217.67ZM45.8999 214.03L46.0778 214.121L45.8999 214.03ZM27.8399 234.4V234.2H27.6399V234.4H27.8399ZM27.8399 260.16H27.6399V260.36H27.8399V260.16ZM47.0199 236.22L46.9357 236.401L46.938 236.402L47.0199 236.22ZM48.1399 257.64L48.2403 257.812L48.2409 257.812L48.1399 257.64ZM143.94 255.4L144.124 255.322L144.073 255.2H143.94V255.4ZM152.2 275L152.016 275.077L152.067 275.2H152.2V275ZM106.28 255.4V255.2H106.147L106.096 255.322L106.28 255.4ZM98.0199 275V275.2H98.1526L98.2042 275.077L98.0199 275ZM78.2799 275L78.0962 274.921L77.9761 275.2H78.2799V275ZM118.46 181.62V181.42H118.328L118.276 181.54L118.46 181.62ZM132.74 181.62L132.924 181.542L132.873 181.42H132.74V181.62ZM171.8 275V275.2H172.1L171.984 274.922L171.8 275ZM112.02 240.56L111.834 240.486L111.726 240.76H112.02V240.56ZM138.62 240.56V240.76H138.914L138.806 240.486L138.62 240.56ZM125.32 206.96L125.506 206.886L125.32 206.416L125.134 206.886L125.32 206.96ZM184.72 181.62V181.42H184.52V181.62H184.72ZM184.72 275H184.52V275.2H184.72V275ZM202.92 181.62H203.12V181.42H202.92V181.62ZM202.92 259.32H202.72V259.52H202.92V259.32ZM232.88 259.32V259.52H233.08V259.32H232.88ZM232.88 181.62V181.42H232.68V181.62H232.88ZM251.08 181.62H251.28V181.42H251.08V181.62ZM251.08 259.32H250.88V259.52H251.08V259.32ZM281.04 259.32V259.52H281.24V259.32H281.04ZM281.04 181.62V181.42H280.84V181.62H281.04ZM299.24 181.62H299.44V181.42H299.24V181.62ZM299.24 275V275.2H299.44V275H299.24ZM346.78 181.62V181.42H346.452L346.602 181.711L346.78 181.62ZM368.06 181.62L368.239 181.53L368.183 181.42H368.06V181.62ZM381.5 248.96L381.679 249.049L381.724 248.958L381.678 248.868L381.5 248.96ZM368.48 275L368.301 274.91L368.156 275.2H368.48V275ZM388.36 275V275.2H388.488L388.541 275.084L388.36 275ZM431.62 181.62L431.801 181.704L431.933 181.42H431.62V181.62ZM411.74 181.62V181.42H411.608L411.556 181.541L411.74 181.62ZM391.72 228.66L391.541 228.749L391.735 229.135L391.904 228.738L391.72 228.66ZM452.66 181.62V181.42H452.494L452.463 181.583L452.66 181.62ZM435.3 275L435.103 274.963L435.059 275.2H435.3V275ZM465.82 181.62L466.004 181.542L465.953 181.42H465.82V181.62ZM490.6 240.98L490.415 241.057L490.596 241.489L490.783 241.06L490.6 240.98ZM516.5 181.62V181.42H516.369L516.317 181.54L516.5 181.62ZM529.66 181.62L529.857 181.586L529.829 181.42H529.66V181.62ZM545.34 275V275.2H545.576L545.537 274.966L545.34 275ZM526.86 275L526.662 275.028L526.687 275.2H526.86V275ZM518.46 217.46L518.658 217.431L518.557 216.737L518.277 217.38L518.46 217.46ZM493.4 275V275.2H493.531L493.583 275.079L493.4 275ZM487.24 275L487.055 275.076L487.106 275.2H487.24V275ZM463.3 217.46L463.485 217.383L463.216 216.738L463.103 217.427L463.3 217.46ZM453.78 275V275.2H453.95L453.977 275.032L453.78 275ZM582.06 181.62H582.26V181.42H582.06V181.62ZM582.06 217.74H581.86V217.94H582.06V217.74ZM563.86 181.62V181.42H563.66V181.62H563.86ZM563.86 275H563.66V275.2H563.86V275ZM582.06 275V275.2H582.26V275H582.06ZM582.06 233.42V233.22H581.86V233.42H582.06ZM621.54 233.42H621.74V233.22H621.54V233.42ZM621.54 275H621.34V275.2H621.54V275ZM639.74 275V275.2H639.94V275H639.74ZM639.74 181.62H639.94V181.42H639.74V181.62ZM621.54 181.62V181.42H621.34V181.62H621.54ZM621.54 217.74V217.94H621.74V217.74H621.54ZM663.02 181.62V181.42H662.82V181.62H663.02ZM663.02 275H662.82V275.2H663.02V275ZM681.22 181.62H681.42V181.42H681.22V181.62ZM681.22 218.16H681.02V218.36H681.22V218.16ZM718.74 225.86L718.875 225.712L718.875 225.712L718.74 225.86ZM722.38 263.52L722.215 263.406L722.215 263.407L722.38 263.52ZM681.22 233.84V233.64H681.02V233.84H681.22ZM681.22 259.32H681.02V259.52H681.22V259.32ZM704.95 237.62L704.807 237.76L704.95 237.62ZM753.74 181.62H753.94V181.42H753.74V181.62ZM735.54 181.62V181.42H735.34V181.62H735.54ZM753.74 275V275.2H753.94V275H753.74ZM735.54 275H735.34V275.2H735.54V275ZM777.02 181.62V181.42H776.82V181.62H777.02ZM795.22 181.62H795.42V181.42H795.22V181.62ZM777.02 275H776.82V275.2H777.02V275ZM789.9 275V275.2H789.995L790.055 275.126L789.9 275ZM841.14 212.56H841.34V212.001L840.985 212.433L841.14 212.56ZM841.14 275H840.94V275.2H841.14V275ZM859.34 275V275.2H859.54V275H859.34ZM859.34 181.62H859.54V181.42H859.34V181.62ZM846.46 181.62V181.42H846.366L846.306 181.492L846.46 181.62ZM795.22 243.78H795.02V244.337L795.374 243.907L795.22 243.78ZM805.58 151.8L805.767 151.729L805.695 151.538L805.506 151.614L805.58 151.8ZM792.98 156.84L792.906 156.654L792.722 156.727L792.793 156.911L792.98 156.84ZM830.78 151.8L830.854 151.614L830.665 151.538L830.593 151.729L830.78 151.8ZM843.38 156.84L843.567 156.911L843.637 156.727L843.454 156.654L843.38 156.84ZM834.07 168.32L834.178 168.488L834.07 168.32ZM802.29 168.32L802.182 168.488L802.29 168.32ZM18.5999 360.62V360.42H18.3999V360.62H18.5999ZM81.5999 360.62H81.7999V360.42H81.5999V360.62ZM15.2399 425.72L15.4256 425.794L15.426 425.793L15.2399 425.72ZM0.399902 438.32L0.405783 438.12L0.199902 438.114V438.32H0.399902ZM0.399902 475H0.199902V475.2H0.399902V475ZM17.1999 475V475.2H17.3999V475H17.1999ZM17.1999 454V453.8H16.9999V454H17.1999ZM74.5999 454H74.7999V453.8H74.5999V454ZM74.5999 475H74.3999V475.2H74.5999V475ZM91.3999 475V475.2H91.5999V475H91.3999ZM91.3999 438.32H91.5999V438.12H91.3999V438.32ZM81.5999 438.32H81.3999V438.52H81.5999V438.32ZM36.2399 376.3V376.1H36.0399V376.3H36.2399ZM33.0199 427.26L33.2062 427.332L33.207 427.33L33.0199 427.26ZM25.7399 438.32L25.6006 438.176L25.2467 438.52H25.7399V438.32ZM63.3999 438.32V438.52H63.5999V438.32H63.3999ZM63.3999 376.3H63.5999V376.1H63.3999V376.3ZM114.82 372.24L114.68 372.097L114.679 372.097L114.82 372.24ZM114.89 442.45L115.03 442.307L114.89 442.45ZM186.71 442.45L186.57 442.307L186.71 442.45ZM128.4 430.62L128.255 430.758L128.256 430.759L128.4 430.62ZM173.2 430.55L173.344 430.688L173.2 430.55ZM173.13 384.14L172.986 384.278L173.13 384.14ZM128.47 384.14L128.614 384.278L128.47 384.14ZM214.68 454L214.483 453.963L214.439 454.2H214.68V454ZM232.04 360.62V360.42H231.874L231.843 360.583L232.04 360.62ZM233.16 454V454.2H233.33L233.357 454.032L233.16 454ZM242.68 396.46L242.865 396.383L242.596 395.738L242.483 396.427L242.68 396.46ZM266.62 454L266.435 454.076L266.486 454.2H266.62V454ZM272.78 454V454.2H272.911L272.963 454.079L272.78 454ZM297.84 396.46L298.038 396.431L297.937 395.737L297.657 396.38L297.84 396.46ZM306.24 454L306.042 454.028L306.067 454.2H306.24V454ZM324.72 454V454.2H324.956L324.917 453.966L324.72 454ZM309.04 360.62L309.237 360.586L309.209 360.42H309.04V360.62ZM295.88 360.62V360.42H295.749L295.697 360.54L295.88 360.62ZM269.98 419.98L269.795 420.057L269.976 420.489L270.163 420.06L269.98 419.98ZM245.2 360.62L245.384 360.542L245.333 360.42H245.2V360.62ZM55.7188 24.021L65.2388 11.561L64.921 11.3181L55.401 23.7781L55.7188 24.021ZM40.2999 16.1195C46.3915 16.1195 51.4211 18.7453 55.4002 24.02L55.7196 23.7791C51.672 18.4137 46.5284 15.7195 40.2999 15.7195V16.1195ZM30.6459 19.3462C32.6462 17.2096 35.848 16.1195 40.2999 16.1195V15.7195C35.7917 15.7195 32.4603 16.8228 30.3539 19.0728L30.6459 19.3462ZM27.6199 26.8395C27.6199 23.9991 28.6258 21.5041 30.6459 19.3462L30.3539 19.0728C28.2673 21.3017 27.2199 23.8933 27.2199 26.8395H27.6199ZM30.4901 32.9877C28.5731 31.3446 27.6199 29.2995 27.6199 26.8395H27.2199C27.2199 29.4195 28.2266 31.5744 30.2297 33.2914L30.4901 32.9877ZM41.6275 38.2713C38.6441 37.1992 36.2242 36.2217 34.3657 35.3389C32.5027 34.454 31.2197 33.6714 30.4967 32.9936L30.2231 33.2854C30.9935 34.0077 32.3237 34.8118 34.1941 35.7002C36.0689 36.5907 38.5023 37.5732 41.4923 38.6477L41.6275 38.2713ZM60.595 47.6921C57.2023 44.5821 50.8679 41.4447 41.6249 38.2704L41.4949 38.6487C50.732 41.821 56.9974 44.9369 60.3248 47.987L60.595 47.6921ZM68.6399 67.4395C68.6399 59.0862 65.9628 52.4948 60.5933 47.6905L60.3265 47.9886C65.5971 52.7043 68.2399 59.1795 68.2399 67.4395H68.6399ZM59.5467 89.7754C65.6117 84.0866 68.6399 76.6349 68.6399 67.4395H68.2399C68.2399 76.5376 65.2482 83.8791 59.2731 89.4837L59.5467 89.7754ZM35.9599 98.2995C45.6152 98.2995 53.4836 95.4626 59.5467 89.7754L59.2731 89.4837C53.2962 95.0899 45.5314 97.8995 35.9599 97.8995V98.2995ZM3.59471 80.5723C11.6561 92.3831 22.4492 98.2995 35.9599 98.2995V97.8995C22.5905 97.8995 11.9172 92.0561 3.92509 80.3468L3.59471 80.5723ZM15.5219 68.9747L3.62193 80.3147L3.89788 80.6043L15.7979 69.2643L15.5219 68.9747ZM24.2982 78.3253C20.6975 76.2942 17.8773 73.1998 15.8396 69.0317L15.4802 69.2074C17.5492 73.4393 20.4223 76.5982 24.1016 78.6737L24.2982 78.3253ZM35.2599 81.3795C31.5649 81.3795 27.9118 80.3638 24.2982 78.3253L24.1016 78.6737C27.768 80.7419 31.4882 81.7795 35.2599 81.7795V81.3795ZM45.4878 77.8593C42.8236 80.202 39.4198 81.3795 35.2599 81.3795V81.7795C39.5 81.7795 43.0029 80.577 45.752 78.1597L45.4878 77.8593ZM49.4799 68.6995C49.4799 72.4727 48.1484 75.5199 45.4878 77.8593L45.752 78.1597C48.5048 75.7392 49.8799 72.5797 49.8799 68.6995H49.4799ZM45.9013 60.4437C48.2901 62.7406 49.4799 65.4891 49.4799 68.6995H49.8799C49.8799 65.3766 48.6431 62.5251 46.1785 60.1554L45.9013 60.4437ZM31.5552 53.6288C35.2377 54.8873 38.2749 56.0862 40.669 57.2251C43.0657 58.3653 44.8064 59.4402 45.9048 60.447L46.175 60.1521C45.0333 59.1055 43.2508 58.0104 40.8408 56.8639C38.4282 55.7162 35.3755 54.5117 31.6846 53.2503L31.5552 53.6288ZM15.9468 45.4688C19.4284 48.5741 24.6367 51.2915 31.5559 53.629L31.6839 53.25C24.7897 50.9209 19.6381 48.225 16.213 45.1703L15.9468 45.4688ZM8.4599 27.9595C8.4599 35.2903 10.9532 41.1347 15.9488 45.4706L16.211 45.1685C11.3133 40.9176 8.8599 35.1889 8.8599 27.9595H8.4599ZM16.2154 8.43129C11.0457 13.8359 8.4599 20.349 8.4599 27.9595H8.8599C8.8599 20.45 11.4074 14.0365 16.5044 8.70778L16.2154 8.43129ZM38.6199 0.319531C28.8762 0.319531 21.3971 3.01404 16.2154 8.43129L16.5044 8.70778C21.5894 3.39163 28.9502 0.719531 38.6199 0.719531V0.319531ZM65.2232 11.3C58.0906 3.97969 49.2183 0.319531 38.6199 0.319531V0.719531C49.115 0.719531 57.8825 4.3393 64.9367 11.5791L65.2232 11.3ZM97.4033 2.58298L80.0433 95.963L80.4365 96.0361L97.7965 2.65609L97.4033 2.58298ZM110.76 2.41953H97.5999V2.81953H110.76V2.41953ZM135.724 61.9025L110.944 2.54248L110.575 2.69658L135.355 62.0566L135.724 61.9025ZM161.257 2.53955L135.357 61.8995L135.723 62.0595L161.623 2.69951L161.257 2.53955ZM174.6 2.41953H161.44V2.81953H174.6V2.41953ZM190.477 95.9664L174.797 2.58641L174.403 2.65265L190.083 96.0326L190.477 95.9664ZM171.8 96.1995H190.28V95.7995H171.8V96.1995ZM163.202 38.4884L171.602 96.0284L171.998 95.9706L163.598 38.4306L163.202 38.4884ZM138.523 96.0794L163.583 38.5394L163.217 38.3797L138.157 95.9197L138.523 96.0794ZM132.18 96.1995H138.34V95.7995H132.18V96.1995ZM108.055 38.5364L131.995 96.0764L132.365 95.9227L108.425 38.3827L108.055 38.5364ZM98.9172 96.0322L108.437 38.4922L108.043 38.4269L98.5226 95.9669L98.9172 96.0322ZM80.2399 96.1995H98.7199V95.7995H80.2399V96.1995ZM272.544 95.9219L264.284 76.3219L263.916 76.4772L272.176 96.0772L272.544 95.9219ZM291.96 95.7995H272.36V96.1995H291.96V95.7995ZM252.715 2.69671L291.775 96.0767L292.144 95.9223L253.084 2.54235L252.715 2.69671ZM238.62 2.81953H252.9V2.41953H238.62V2.81953ZM198.624 96.0786L238.804 2.69858L238.436 2.54048L198.256 95.9205L198.624 96.0786ZM218.18 95.7995H198.44V96.1995H218.18V95.7995ZM226.256 76.3219L217.996 95.9219L218.364 96.0772L226.624 76.4772L226.256 76.3219ZM264.1 76.1995H226.44V76.5995H264.1V76.1995ZM245.294 28.0331L258.594 61.6331L258.966 61.4859L245.666 27.8859L245.294 28.0331ZM232.366 61.6331L245.666 28.0331L245.294 27.8859L231.994 61.4859L232.366 61.6331ZM258.78 61.3595H232.18V61.7595H258.78V61.3595ZM304.88 2.81953H331.9V2.41953H304.88V2.81953ZM305.08 95.9995V2.61953H304.68V95.9995H305.08ZM323.08 95.7995H304.88V96.1995H323.08V95.7995ZM322.88 58.4795V95.9995H323.28V58.4795H322.88ZM325.32 58.2795H323.08V58.6795H325.32V58.2795ZM350.407 95.8889L325.487 58.3689L325.153 58.5902L350.073 96.1102L350.407 95.8889ZM372.92 95.7995H350.24V96.1995H372.92V95.7995ZM343.639 56.7785L372.759 96.1185L373.081 95.8805L343.961 56.5405L343.639 56.7785ZM353.905 52.4357C351.133 54.3764 347.754 55.7205 343.763 56.4629L343.837 56.8562C347.873 56.1053 351.307 54.7426 354.135 52.7634L353.905 52.4357ZM364.74 30.6195C364.74 40.268 361.126 47.5289 353.908 52.4341L354.132 52.765C361.473 47.7767 365.14 40.3845 365.14 30.6195H364.74ZM355.571 9.77203C361.682 14.9572 364.74 21.8992 364.74 30.6195H365.14C365.14 21.7931 362.038 14.7353 355.829 9.46703L355.571 9.77203ZM331.9 2.81953C342.139 2.81953 350.02 5.14662 355.572 9.77318L355.828 9.46589C350.18 4.75906 342.195 2.41953 331.9 2.41953V2.81953ZM323.28 45.5995V17.4595H322.88V45.5995H323.28ZM328.26 45.3995H323.08V45.7995H328.26V45.3995ZM332.638 45.0521C331.202 45.2837 329.743 45.3995 328.26 45.3995V45.7995C329.764 45.7995 331.244 45.682 332.702 45.447L332.638 45.0521ZM338.276 43.5202C335.947 44.312 334.069 44.8213 332.638 45.0521L332.702 45.447C334.164 45.2111 336.066 44.6938 338.404 43.8989L338.276 43.5202ZM343.845 39.2561C342.422 41.322 340.567 42.7412 338.276 43.5202L338.404 43.8989C340.78 43.0912 342.704 41.6171 344.175 39.483L343.845 39.2561ZM345.98 31.4595C345.98 34.6023 345.264 37.1968 343.845 39.2561L344.175 39.483C345.649 37.3422 346.38 34.6634 346.38 31.4595H345.98ZM343.913 23.6605C345.287 25.7201 345.98 28.3155 345.98 31.4595H346.38C346.38 28.2569 345.673 25.579 344.246 23.4386L343.913 23.6605ZM338.415 19.3989C340.706 20.1777 342.537 21.5962 343.913 23.6605L344.246 23.4386C342.823 21.3029 340.92 19.8281 338.544 19.0202L338.415 19.3989ZM332.853 17.9378C334.234 18.1219 336.087 18.6071 338.415 19.3989L338.544 19.0202C336.206 18.2253 334.325 17.7305 332.906 17.5413L332.853 17.9378ZM328.54 17.6595C330.025 17.6595 331.463 17.7523 332.853 17.9378L332.906 17.5413C331.497 17.3534 330.042 17.2595 328.54 17.2595V17.6595ZM323.08 17.6595H328.54V17.2595H323.08V17.6595ZM437.64 18.0995H416.64V18.4995H437.64V18.0995ZM437.44 2.61953V18.2995H437.84V2.61953H437.44ZM377.44 2.81953H437.64V2.41953H377.44V2.81953ZM377.64 18.2995V2.61953H377.24V18.2995H377.64ZM398.44 18.0995H377.44V18.4995H398.44V18.0995ZM398.64 95.9995V18.2995H398.24V95.9995H398.64ZM416.64 95.7995H398.44V96.1995H416.64V95.7995ZM416.44 18.2995V95.9995H416.84V18.2995H416.44ZM486.12 18.4995H507.12V18.0995H486.12V18.4995ZM486.32 95.9995V18.2995H485.92V95.9995H486.32ZM467.92 96.1995H486.12V95.7995H467.92V96.1995ZM467.72 18.2995V95.9995H468.12V18.2995H467.72ZM446.92 18.4995H467.92V18.0995H446.92V18.4995ZM446.72 2.61953V18.2995H447.12V2.61953H446.72ZM507.12 2.41953H446.92V2.81953H507.12V2.41953ZM507.32 18.2995V2.61953H506.92V18.2995H507.32ZM520.6 2.81953H547.62V2.41953H520.6V2.81953ZM520.8 95.9995V2.61953H520.4V95.9995H520.8ZM538.8 95.7995H520.6V96.1995H538.8V95.7995ZM538.6 58.4795V95.9995H539V58.4795H538.6ZM541.04 58.2795H538.8V58.6795H541.04V58.2795ZM566.127 95.8889L541.207 58.3689L540.873 58.5902L565.793 96.1102L566.127 95.8889ZM588.64 95.7995H565.96V96.1995H588.64V95.7995ZM559.359 56.7785L588.479 96.1185L588.801 95.8805L559.681 56.5405L559.359 56.7785ZM569.625 52.4357C566.853 54.3764 563.474 55.7205 559.483 56.4629L559.556 56.8562C563.593 56.1053 567.027 54.7426 569.855 52.7634L569.625 52.4357ZM580.46 30.6195C580.46 40.268 576.846 47.5289 569.628 52.4341L569.852 52.765C577.193 47.7767 580.86 40.3845 580.86 30.6195H580.46ZM571.291 9.77203C577.402 14.9572 580.46 21.8992 580.46 30.6195H580.86C580.86 21.7931 577.758 14.7353 571.549 9.46703L571.291 9.77203ZM547.62 2.81953C557.859 2.81953 565.74 5.14662 571.292 9.77318L571.548 9.46589C565.9 4.75906 557.915 2.41953 547.62 2.41953V2.81953ZM539 45.5995V17.4595H538.6V45.5995H539ZM543.98 45.3995H538.8V45.7995H543.98V45.3995ZM548.358 45.0521C546.922 45.2837 545.463 45.3995 543.98 45.3995V45.7995C545.484 45.7995 546.964 45.682 548.422 45.447L548.358 45.0521ZM553.996 43.5202C551.667 44.312 549.789 44.8213 548.358 45.0521L548.422 45.447C549.884 45.2111 551.786 44.6938 554.124 43.8989L553.996 43.5202ZM559.565 39.2561C558.142 41.322 556.287 42.7412 553.996 43.5202L554.124 43.8989C556.5 43.0912 558.424 41.6171 559.895 39.483L559.565 39.2561ZM561.7 31.4595C561.7 34.6023 560.984 37.1968 559.565 39.2561L559.895 39.483C561.369 37.3422 562.1 34.6634 562.1 31.4595H561.7ZM559.634 23.6605C561.007 25.7201 561.7 28.3155 561.7 31.4595H562.1C562.1 28.2569 561.393 25.579 559.966 23.4386L559.634 23.6605ZM554.136 19.3989C556.426 20.1777 558.257 21.5962 559.634 23.6605L559.966 23.4386C558.542 21.3029 556.64 19.8281 554.264 19.0202L554.136 19.3989ZM548.573 17.9378C549.955 18.1219 551.807 18.6071 554.136 19.3989L554.264 19.0202C551.926 18.2253 550.045 17.7305 548.626 17.5413L548.573 17.9378ZM544.26 17.6595C545.745 17.6595 547.183 17.7523 548.573 17.9378L548.626 17.5413C547.217 17.3534 545.762 17.2595 544.26 17.2595V17.6595ZM538.8 17.6595H544.26V17.2595H538.8V17.6595ZM654.56 2.61953V18.2995H654.96V2.61953H654.56ZM602.96 2.81953H654.76V2.41953H602.96V2.81953ZM603.16 95.9995V2.61953H602.76V95.9995H603.16ZM654.76 95.7995H602.96V96.1995H654.76V95.7995ZM654.56 80.3195V95.9995H654.96V80.3195H654.56ZM621.16 80.5195H654.76V80.1195H621.16V80.5195ZM620.96 54.8395V80.3195H621.36V54.8395H620.96ZM653.36 54.6395H621.16V55.0395H653.36V54.6395ZM653.16 39.1595V54.8395H653.56V39.1595H653.16ZM621.16 39.3595H653.36V38.9595H621.16V39.3595ZM620.96 18.2995V39.1595H621.36V18.2995H620.96ZM654.76 18.0995H621.16V18.4995H654.76V18.0995ZM674.4 96.1995H692.6V95.7995H674.4V96.1995ZM674.2 2.61953V95.9995H674.6V2.61953H674.2ZM687 2.41953H674.4V2.81953H687V2.41953ZM743.988 64.7847L687.148 2.48473L686.852 2.75433L743.692 65.0543L743.988 64.7847ZM743.64 2.61953V64.9195H744.04V2.61953H743.64ZM762.04 2.41953H743.84V2.81953H762.04V2.41953ZM762.24 95.9995V2.61953H761.84V95.9995H762.24ZM749.44 96.1995H762.04V95.7995H749.44V96.1995ZM692.452 33.6942L749.292 96.1342L749.588 95.8649L692.748 33.4249L692.452 33.6942ZM692.8 95.9995V33.5595H692.4V95.9995H692.8ZM785.32 2.81953H809.68V2.41953H785.32V2.81953ZM785.52 95.9995V2.61953H785.12V95.9995H785.52ZM809.4 95.7995H785.32V96.1995H809.4V95.7995ZM828.115 93.9847C822.907 95.1936 816.67 95.7995 809.4 95.7995V96.1995C816.69 96.1995 822.959 95.5921 828.205 94.3743L828.115 93.9847ZM843.445 86.876C838.423 90.41 833.313 92.778 828.115 93.9847L828.205 94.3743C833.46 93.1544 838.617 90.7624 843.675 87.2031L843.445 86.876ZM862.12 49.3795C862.12 65.6531 855.894 78.1428 843.445 86.8758L843.675 87.2033C856.239 78.3895 862.52 65.7728 862.52 49.3795H862.12ZM857.449 28.0459C860.562 34.5504 862.12 41.6606 862.12 49.3795H862.52C862.52 41.6051 860.951 34.4354 857.81 27.8732L857.449 28.0459ZM844.279 11.8792C849.947 16.153 854.336 21.5409 857.449 28.0459L857.81 27.8732C854.67 21.3114 850.24 15.8728 844.52 11.5598L844.279 11.8792ZM828.955 4.70449C834.434 5.95799 839.542 8.34897 844.28 11.8799L844.519 11.5592C839.738 7.99672 834.58 5.58109 829.044 4.31457L828.955 4.70449ZM809.68 2.81953C817.043 2.81953 823.467 3.44867 828.955 4.70449L829.044 4.31457C823.519 3.05038 817.064 2.41953 809.68 2.41953V2.81953ZM803.72 80.3195V18.2995H803.32V80.3195H803.72ZM809.12 80.1195H803.52V80.5195H809.12V80.1195ZM831.823 73.9973C826.174 78.0721 818.613 80.1195 809.12 80.1195V80.5195C818.667 80.5195 826.319 78.4604 832.057 74.3217L831.823 73.9973ZM840.298 63.5055C838.258 67.9104 835.433 71.4056 831.823 73.9971L832.057 74.322C835.727 71.6868 838.595 68.1353 840.661 63.6736L840.298 63.5055ZM843.36 49.3795C843.36 54.3915 842.339 59.0993 840.298 63.5055L840.661 63.6736C842.727 59.213 843.76 54.4476 843.76 49.3795H843.36ZM840.368 35.392C842.362 39.799 843.36 44.4608 843.36 49.3795H843.76C843.76 44.4049 842.751 39.6868 840.732 35.2271L840.368 35.392ZM831.958 24.6181C835.57 27.3969 838.374 30.9867 840.368 35.392L840.732 35.2271C838.713 30.7656 835.869 27.1222 832.202 24.301L831.958 24.6181ZM809.12 18.4995C818.895 18.4995 826.5 20.5479 831.96 24.6199L832.199 24.2992C826.646 20.1578 818.945 18.0995 809.12 18.0995V18.4995ZM803.52 18.4995H809.12V18.0995H803.52V18.4995ZM936.401 11.3181L926.881 23.7781L927.199 24.021L936.719 11.561L936.401 11.3181ZM910.1 0.719531C920.595 0.719531 929.362 4.3393 936.417 11.5791L936.703 11.3C929.571 3.97969 920.698 0.319531 910.1 0.319531V0.719531ZM887.984 8.70778C893.069 3.39163 900.43 0.719531 910.1 0.719531V0.319531C900.356 0.319531 892.877 3.01404 887.695 8.43129L887.984 8.70778ZM880.34 27.9595C880.34 20.45 882.887 14.0365 887.984 8.70778L887.695 8.43129C882.526 13.8359 879.94 20.349 879.94 27.9595H880.34ZM887.691 45.1685C882.793 40.9176 880.34 35.1889 880.34 27.9595H879.94C879.94 35.2903 882.433 41.1347 887.429 45.4706L887.691 45.1685ZM903.164 53.25C896.27 50.9209 891.118 48.225 887.693 45.1703L887.427 45.4688C890.909 48.5741 896.117 51.2915 903.036 53.629L903.164 53.25ZM917.655 60.1521C916.513 59.1055 914.731 58.0104 912.321 56.8639C909.908 55.7162 906.856 54.5117 903.165 53.2503L903.035 53.6288C906.718 54.8873 909.755 56.0862 912.149 57.2251C914.546 58.3653 916.286 59.4402 917.385 60.447L917.655 60.1521ZM921.36 68.6995C921.36 65.3766 920.123 62.5251 917.659 60.1554L917.381 60.4437C919.77 62.7406 920.96 65.4891 920.96 68.6995H921.36ZM917.232 78.1597C919.985 75.7392 921.36 72.5797 921.36 68.6995H920.96C920.96 72.4727 919.628 75.5199 916.968 77.8593L917.232 78.1597ZM906.74 81.7795C910.98 81.7795 914.483 80.577 917.232 78.1597L916.968 77.8593C914.304 80.202 910.9 81.3795 906.74 81.3795V81.7795ZM895.582 78.6737C899.248 80.7419 902.968 81.7795 906.74 81.7795V81.3795C903.045 81.3795 899.392 80.3638 895.778 78.3253L895.582 78.6737ZM886.96 69.2074C889.029 73.4393 891.902 76.5982 895.582 78.6737L895.778 78.3253C892.178 76.2942 889.357 73.1998 887.32 69.0317L886.96 69.2074ZM875.378 80.6043L887.278 69.2643L887.002 68.9747L875.102 80.3147L875.378 80.6043ZM907.44 97.8995C894.07 97.8995 883.397 92.0561 875.405 80.3468L875.075 80.5723C883.136 92.3831 893.929 98.2995 907.44 98.2995V97.8995ZM930.753 89.4837C924.776 95.0899 917.011 97.8995 907.44 97.8995V98.2995C917.095 98.2995 924.964 95.4626 931.027 89.7754L930.753 89.4837ZM939.72 67.4395C939.72 76.5376 936.728 83.8791 930.753 89.4837L931.027 89.7754C937.092 84.0866 940.12 76.6349 940.12 67.4395H939.72ZM931.807 47.9886C937.077 52.7043 939.72 59.1795 939.72 67.4395H940.12C940.12 59.0862 937.443 52.4948 932.073 47.6905L931.807 47.9886ZM912.975 38.6487C922.212 41.821 928.477 44.9369 931.805 47.987L932.075 47.6921C928.682 44.5821 922.348 41.4447 913.105 38.2704L912.975 38.6487ZM901.703 33.2854C902.474 34.0077 903.804 34.8118 905.674 35.7002C907.549 36.5907 909.982 37.5732 912.972 38.6477L913.108 38.2713C910.124 37.1992 907.704 36.2217 905.846 35.3389C903.983 34.454 902.7 33.6714 901.977 32.9936L901.703 33.2854ZM898.7 26.8395C898.7 29.4195 899.707 31.5744 901.71 33.2914L901.97 32.9877C900.053 31.3446 899.1 29.2995 899.1 26.8395H898.7ZM901.834 19.0728C899.747 21.3017 898.7 23.8933 898.7 26.8395H899.1C899.1 23.9991 900.106 21.5041 902.126 19.3462L901.834 19.0728ZM911.78 15.7195C907.272 15.7195 903.94 16.8228 901.834 19.0728L902.126 19.3462C904.126 17.2096 907.328 16.1195 911.78 16.1195V15.7195ZM927.2 23.7791C923.152 18.4137 918.008 15.7195 911.78 15.7195V16.1195C917.871 16.1195 922.901 18.7453 926.88 24.02L927.2 23.7791ZM953.76 86.8995C953.76 90.0289 954.805 92.6924 956.895 94.8778L957.184 94.6013C955.168 92.4933 954.16 89.9301 954.16 86.8995H953.76ZM956.969 78.9881C954.829 81.1272 953.76 83.7687 953.76 86.8995H954.16C954.16 83.8704 955.19 81.3319 957.251 79.271L956.969 78.9881ZM964.88 75.7795C961.749 75.7795 959.107 76.8491 956.969 78.9881L957.251 79.271C959.312 77.21 961.851 76.1795 964.88 76.1795V75.7795ZM972.791 78.9881C970.652 76.8491 968.011 75.7795 964.88 75.7795V76.1795C967.909 76.1795 970.447 77.21 972.508 79.271L972.791 78.9881ZM976 86.8995C976 83.7687 974.93 81.1272 972.791 78.9881L972.508 79.271C974.569 81.3319 975.6 83.8704 975.6 86.8995H976ZM972.791 94.811C974.93 92.6719 976 90.0304 976 86.8995H975.6C975.6 89.9287 974.569 92.4671 972.508 94.5281L972.791 94.811ZM964.88 98.0195C968.011 98.0195 970.652 96.95 972.791 94.811L972.508 94.5281C970.447 96.5891 967.909 97.6195 964.88 97.6195V98.0195ZM956.902 94.8841C959.087 96.9744 961.75 98.0195 964.88 98.0195V97.6195C961.849 97.6195 959.286 96.6113 957.178 94.595L956.902 94.8841ZM9.6399 181.82H32.7399V181.42H9.6399V181.82ZM9.8399 275V181.62H9.4399V275H9.8399ZM40.9999 274.8H9.6399V275.2H40.9999V274.8ZM64.5273 267.29C58.8811 272.288 51.0473 274.8 40.9999 274.8V275.2C51.1126 275.2 59.052 272.671 64.7925 267.589L64.5273 267.29ZM72.4399 248.54C72.4399 256.329 69.7997 262.572 64.5265 267.29L64.7933 267.589C70.1601 262.787 72.8399 256.43 72.8399 248.54H72.4399ZM65.7815 231.184C70.2148 235.433 72.4399 241.21 72.4399 248.54H72.8399C72.8399 241.123 70.585 235.233 66.0583 230.895L65.7815 231.184ZM53.7089 225.357C58.4308 226.098 62.4532 228.041 65.7826 231.185L66.0572 230.894C62.6665 227.692 58.569 225.715 53.7709 224.962L53.7089 225.357ZM64.0399 206.82C64.0399 210.944 63.1711 214.514 61.4413 217.535C59.7118 220.556 57.1151 223.04 53.6422 224.985L53.8376 225.334C57.3648 223.359 60.0181 220.826 61.7885 217.734C63.5587 214.642 64.4399 211.001 64.4399 206.82H64.0399ZM55.4375 187.658C61.1676 192.094 64.0399 198.471 64.0399 206.82H64.4399C64.4399 198.368 61.5256 191.865 55.6823 187.341L55.4375 187.658ZM32.7399 181.82C42.8934 181.82 50.4476 183.777 55.4371 187.657L55.6827 187.342C50.5921 183.382 42.9332 181.42 32.7399 181.42V181.82ZM28.0399 220.4V196.46H27.6399V220.4H28.0399ZM33.0199 220.2H27.8399V220.6H33.0199V220.2ZM35.5982 220.13C34.8093 220.176 33.95 220.2 33.0199 220.2V220.6C33.9565 220.6 34.8238 220.576 35.6216 220.529L35.5982 220.13ZM39.0519 219.368C37.5149 219.834 36.3669 220.085 35.5982 220.13L35.6216 220.529C36.4396 220.481 37.6249 220.219 39.1679 219.751L39.0519 219.368ZM42.911 217.509C41.8594 218.286 40.5744 218.907 39.0519 219.368L39.1679 219.751C40.7254 219.279 42.0537 218.64 43.1488 217.83L42.911 217.509ZM45.722 213.938C44.8911 215.554 43.9521 216.739 42.911 217.509L43.1488 217.83C44.2543 217.013 45.2287 215.772 46.0778 214.121L45.722 213.938ZM46.9599 208.22C46.9599 210.435 46.5446 212.339 45.722 213.938L46.0778 214.121C46.9352 212.454 47.3599 210.484 47.3599 208.22H46.9599ZM43.1218 199.491C45.6713 201.358 46.9599 204.253 46.9599 208.22H47.3599C47.3599 204.159 46.0352 201.128 43.3581 199.168L43.1218 199.491ZM33.1599 196.66C37.2356 196.66 40.5509 197.609 43.1218 199.491L43.3581 199.168C40.7022 197.224 37.2976 196.26 33.1599 196.26V196.66ZM27.8399 196.66H33.1599V196.26H27.8399V196.66ZM27.6399 234.4V260.16H28.0399V234.4H27.6399ZM34.5599 234.2H27.8399V234.6H34.5599V234.2ZM47.1041 236.038C44.4494 234.806 40.2594 234.2 34.5599 234.2V234.6C40.2471 234.6 44.3637 235.207 46.9357 236.401L47.1041 236.038ZM54.0799 246.86C54.0799 244.309 53.5009 242.123 52.333 240.311C51.165 238.5 49.417 237.077 47.1018 236.037L46.938 236.402C49.1961 237.416 50.8781 238.793 51.9968 240.528C53.1156 242.263 53.6799 244.37 53.6799 246.86H54.0799ZM48.2409 257.812C52.137 255.532 54.0799 251.867 54.0799 246.86H53.6799C53.6799 251.745 51.7962 255.268 48.0389 257.467L48.2409 257.812ZM35.6799 260.36C41.109 260.36 45.3031 259.518 48.2403 257.812L48.0395 257.467C45.19 259.121 41.0776 259.96 35.6799 259.96V260.36ZM27.8399 260.36H35.6799V259.96H27.8399V260.36ZM143.756 255.477L152.016 275.077L152.384 274.922L144.124 255.322L143.756 255.477ZM106.28 255.6H143.94V255.2H106.28V255.6ZM98.2042 275.077L106.464 255.477L106.096 255.322L97.8356 274.922L98.2042 275.077ZM78.2799 275.2H98.0199V274.8H78.2799V275.2ZM118.276 181.54L78.0962 274.921L78.4636 275.079L118.644 181.699L118.276 181.54ZM132.74 181.42H118.46V181.82H132.74V181.42ZM171.984 274.922L132.924 181.542L132.555 181.697L171.615 275.077L171.984 274.922ZM152.2 275.2H171.8V274.8H152.2V275.2ZM112.02 240.76H138.62V240.36H112.02V240.76ZM125.134 206.886L111.834 240.486L112.206 240.633L125.506 207.033L125.134 206.886ZM138.806 240.486L125.506 206.886L125.134 207.033L138.434 240.633L138.806 240.486ZM184.52 181.62V275H184.92V181.62H184.52ZM202.92 181.42H184.72V181.82H202.92V181.42ZM203.12 259.32V181.62H202.72V259.32H203.12ZM232.88 259.12H202.92V259.52H232.88V259.12ZM232.68 181.62V259.32H233.08V181.62H232.68ZM251.08 181.42H232.88V181.82H251.08V181.42ZM251.28 259.32V181.62H250.88V259.32H251.28ZM281.04 259.12H251.08V259.52H281.04V259.12ZM280.84 181.62V259.32H281.24V181.62H280.84ZM299.24 181.42H281.04V181.82H299.24V181.42ZM299.44 275V181.62H299.04V275H299.44ZM184.72 275.2H299.24V274.8H184.72V275.2ZM346.78 181.82H368.06V181.42H346.78V181.82ZM381.678 248.868L346.958 181.528L346.602 181.711L381.322 249.051L381.678 248.868ZM368.659 275.089L381.679 249.049L381.321 248.87L368.301 274.91L368.659 275.089ZM388.36 274.8H368.48V275.2H388.36V274.8ZM431.438 181.535L388.178 274.915L388.541 275.084L431.801 181.704L431.438 181.535ZM411.74 181.82H431.62V181.42H411.74V181.82ZM391.904 228.738L411.924 181.698L411.556 181.541L391.536 228.581L391.904 228.738ZM367.881 181.709L391.541 228.749L391.899 228.57L368.239 181.53L367.881 181.709ZM452.463 181.583L435.103 274.963L435.497 275.036L452.857 181.656L452.463 181.583ZM465.82 181.42H452.66V181.82H465.82V181.42ZM490.784 240.902L466.004 181.542L465.635 181.697L490.415 241.057L490.784 240.902ZM516.317 181.54L490.417 240.9L490.783 241.06L516.683 181.7L516.317 181.54ZM529.66 181.42H516.5V181.82H529.66V181.42ZM545.537 274.966L529.857 181.586L529.463 181.653L545.143 275.033L545.537 274.966ZM526.86 275.2H545.34V274.8H526.86V275.2ZM518.262 217.488L526.662 275.028L527.058 274.971L518.658 217.431L518.262 217.488ZM493.583 275.079L518.643 217.539L518.277 217.38L493.217 274.92L493.583 275.079ZM487.24 275.2H493.4V274.8H487.24V275.2ZM463.115 217.536L487.055 275.076L487.425 274.923L463.485 217.383L463.115 217.536ZM453.977 275.032L463.497 217.492L463.103 217.427L453.583 274.967L453.977 275.032ZM435.3 275.2H453.78V274.8H435.3V275.2ZM581.86 181.62V217.74H582.26V181.62H581.86ZM563.86 181.82H582.06V181.42H563.86V181.82ZM564.06 275V181.62H563.66V275H564.06ZM582.06 274.8H563.86V275.2H582.06V274.8ZM581.86 233.42V275H582.26V233.42H581.86ZM621.54 233.22H582.06V233.62H621.54V233.22ZM621.74 275V233.42H621.34V275H621.74ZM639.74 274.8H621.54V275.2H639.74V274.8ZM639.54 181.62V275H639.94V181.62H639.54ZM621.54 181.82H639.74V181.42H621.54V181.82ZM621.74 217.74V181.62H621.34V217.74H621.74ZM582.06 217.94H621.54V217.54H582.06V217.94ZM662.82 181.62V275H663.22V181.62H662.82ZM681.22 181.42H663.02V181.82H681.22V181.42ZM681.42 218.16V181.62H681.02V218.16H681.42ZM695.78 217.96H681.22V218.36H695.78V217.96ZM718.875 225.712C713.229 220.536 705.522 217.96 695.78 217.96V218.36C705.451 218.36 713.051 220.916 718.605 226.007L718.875 225.712ZM727.62 246.72C727.62 238.083 724.707 231.074 718.875 225.712L718.604 226.007C724.346 231.285 727.22 238.183 727.22 246.72H727.62ZM722.544 263.633C725.929 258.744 727.62 253.104 727.62 246.72H727.22C727.22 253.029 725.551 258.588 722.215 263.406L722.544 263.633ZM695.92 275.2C708.375 275.2 717.269 271.358 722.545 263.632L722.215 263.407C717.037 270.988 708.292 274.8 695.92 274.8V275.2ZM663.02 275.2H695.92V274.8H663.02V275.2ZM681.02 233.84V259.32H681.42V233.84H681.02ZM692.14 233.64H681.22V234.04H692.14V233.64ZM705.093 237.479C702.562 234.901 698.224 233.64 692.14 233.64V234.04C698.189 234.04 702.391 235.298 704.807 237.76L705.093 237.479ZM708.86 246.72C708.86 243.121 707.603 240.037 705.093 237.479L704.807 237.76C707.244 240.242 708.46 243.225 708.46 246.72H708.86ZM691.86 259.52C697.479 259.52 701.73 258.467 704.58 256.33C707.441 254.184 708.86 250.968 708.86 246.72H708.46C708.46 250.871 707.079 253.955 704.34 256.01C701.59 258.072 697.441 259.12 691.86 259.12V259.52ZM681.22 259.52H691.86V259.12H681.22V259.52ZM753.74 181.42H735.54V181.82H753.74V181.42ZM753.94 275V181.62H753.54V275H753.94ZM735.54 275.2H753.74V274.8H735.54V275.2ZM735.34 181.62V275H735.74V181.62H735.34ZM777.02 181.82H795.22V181.42H777.02V181.82ZM777.22 275V181.62H776.82V275H777.22ZM789.9 274.8H777.02V275.2H789.9V274.8ZM840.985 212.433L789.745 274.873L790.055 275.126L841.294 212.686L840.985 212.433ZM841.34 275V212.56H840.94V275H841.34ZM859.34 274.8H841.14V275.2H859.34V274.8ZM859.14 181.62V275H859.54V181.62H859.14ZM846.46 181.82H859.34V181.42H846.46V181.82ZM795.374 243.907L846.614 181.747L846.306 181.492L795.066 243.652L795.374 243.907ZM795.02 181.62V243.78H795.42V181.62H795.02ZM805.506 151.614L792.906 156.654L793.054 157.025L805.654 151.985L805.506 151.614ZM818.18 159.72C815.035 159.72 812.438 159.049 810.378 157.721C808.32 156.395 806.781 154.402 805.767 151.729L805.393 151.87C806.432 154.611 808.02 156.678 810.162 158.058C812.302 159.437 814.978 160.12 818.18 160.12V159.72ZM830.593 151.729C829.579 154.402 828.04 156.395 825.982 157.721C823.922 159.049 821.325 159.72 818.18 159.72V160.12C821.381 160.12 824.058 159.437 826.198 158.058C828.34 156.678 829.928 154.611 830.967 151.87L830.593 151.729ZM843.454 156.654L830.854 151.614L830.706 151.985L843.306 157.025L843.454 156.654ZM834.178 168.488C838.554 165.664 841.685 161.804 843.567 156.911L843.193 156.768C841.342 161.582 838.266 165.375 833.962 168.151L834.178 168.488ZM818.18 172.72C824.464 172.72 829.8 171.312 834.178 168.488L833.962 168.151C829.66 170.927 824.403 172.32 818.18 172.32V172.72ZM802.182 168.488C806.56 171.312 811.896 172.72 818.18 172.72V172.32C811.957 172.32 806.7 170.927 802.398 168.151L802.182 168.488ZM792.793 156.911C794.675 161.804 797.806 165.664 802.182 168.488L802.398 168.151C798.094 165.375 795.018 161.582 793.167 156.768L792.793 156.911ZM18.5999 360.82H81.5999V360.42H18.5999V360.82ZM18.7999 401.22V360.62H18.3999V401.22H18.7999ZM15.426 425.793C17.6796 420.065 18.7999 411.869 18.7999 401.22H18.3999C18.3999 411.85 17.2802 419.987 15.0538 425.646L15.426 425.793ZM9.21457 435.037C11.8532 432.634 13.9226 429.551 15.4256 425.794L15.0542 425.645C13.5705 429.354 11.5333 432.385 8.94524 434.742L9.21457 435.037ZM0.394021 438.519C3.62526 438.615 6.56762 437.448 9.21457 435.037L8.94524 434.742C6.36549 437.091 3.52124 438.211 0.405783 438.12L0.394021 438.519ZM0.599902 475V438.32H0.199902V475H0.599902ZM17.1999 474.8H0.399902V475.2H17.1999V474.8ZM16.9999 454V475H17.3999V454H16.9999ZM74.5999 453.8H17.1999V454.2H74.5999V453.8ZM74.7999 475V454H74.3999V475H74.7999ZM91.3999 474.8H74.5999V475.2H91.3999V474.8ZM91.1999 438.32V475H91.5999V438.32H91.1999ZM81.5999 438.52H91.3999V438.12H81.5999V438.52ZM81.3999 360.62V438.32H81.7999V360.62H81.3999ZM36.4399 401.22V376.3H36.0399V401.22H36.4399ZM33.207 427.33C35.3668 421.602 36.4399 412.892 36.4399 401.22H36.0399C36.0399 412.88 34.9663 421.53 32.8328 427.189L33.207 427.33ZM25.8792 438.463C29.0739 435.362 31.5162 431.651 33.2062 427.332L32.8337 427.187C31.1636 431.455 28.7526 435.117 25.6006 438.176L25.8792 438.463ZM63.3999 438.12H25.7399V438.52H63.3999V438.12ZM63.1999 376.3V438.32H63.5999V376.3H63.1999ZM36.2399 376.5H63.3999V376.1H36.2399V376.5ZM114.96 372.382C124.251 363.277 136.192 358.72 150.8 358.72V358.32C136.101 358.32 124.055 362.909 114.68 372.097L114.96 372.382ZM101.16 407.38C101.16 393.147 105.762 381.487 114.961 372.382L114.679 372.097C105.397 381.286 100.76 393.052 100.76 407.38H101.16ZM115.03 442.307C105.786 433.248 101.16 421.612 101.16 407.38H100.76C100.76 421.708 105.421 433.451 114.75 442.592L115.03 442.307ZM150.8 455.9C136.192 455.9 124.274 451.365 115.03 442.307L114.75 442.592C124.079 451.734 136.101 456.3 150.8 456.3V455.9ZM186.57 442.307C177.325 451.365 165.408 455.9 150.8 455.9V456.3C165.498 456.3 177.521 451.734 186.85 442.592L186.57 442.307ZM200.44 407.38C200.44 421.612 195.814 433.248 186.57 442.307L186.85 442.592C196.179 433.451 200.84 421.708 200.84 407.38H200.44ZM186.57 372.382C195.814 381.487 200.44 393.147 200.44 407.38H200.84C200.84 393.052 196.179 381.285 186.85 372.097L186.57 372.382ZM150.8 358.72C165.408 358.72 177.325 363.277 186.57 372.382L186.85 372.097C177.521 362.909 165.499 358.32 150.8 358.32V358.72ZM150.8 439.38C141.701 439.38 134.289 436.411 128.544 430.48L128.256 430.759C134.085 436.775 141.605 439.78 150.8 439.78V439.38ZM173.056 430.411C167.311 436.388 159.898 439.38 150.8 439.38V439.78C159.995 439.78 167.516 436.751 173.344 430.688L173.056 430.411ZM181.68 407.38C181.68 416.762 178.802 424.433 173.056 430.411L173.344 430.688C179.171 424.626 182.08 416.851 182.08 407.38H181.68ZM172.986 384.278C178.779 390.303 181.68 397.998 181.68 407.38H182.08C182.08 397.908 179.148 390.109 173.274 384.001L172.986 384.278ZM150.8 375.24C159.803 375.24 167.193 378.254 172.986 384.278L173.274 384.001C167.4 377.892 159.903 374.84 150.8 374.84V375.24ZM128.614 384.278C134.407 378.254 141.796 375.24 150.8 375.24V374.84C141.697 374.84 134.2 377.892 128.326 384.001L128.614 384.278ZM119.92 407.38C119.92 397.998 122.821 390.303 128.614 384.278L128.326 384.001C122.452 390.109 119.52 397.908 119.52 407.38H119.92ZM128.545 430.481C122.798 424.457 119.92 416.762 119.92 407.38H119.52C119.52 416.851 122.428 424.649 128.255 430.758L128.545 430.481ZM214.877 454.036L232.237 360.656L231.843 360.583L214.483 453.963L214.877 454.036ZM233.16 453.8H214.68V454.2H233.16V453.8ZM242.483 396.427L232.963 453.967L233.357 454.032L242.877 396.492L242.483 396.427ZM266.805 453.923L242.865 396.383L242.495 396.536L266.435 454.076L266.805 453.923ZM272.78 453.8H266.62V454.2H272.78V453.8ZM297.657 396.38L272.597 453.92L272.963 454.079L298.023 396.539L297.657 396.38ZM306.438 453.971L298.038 396.431L297.642 396.488L306.042 454.028L306.438 453.971ZM324.72 453.8H306.24V454.2H324.72V453.8ZM308.843 360.653L324.523 454.033L324.917 453.966L309.237 360.586L308.843 360.653ZM295.88 360.82H309.04V360.42H295.88V360.82ZM270.163 420.06L296.063 360.7L295.697 360.54L269.797 419.9L270.163 420.06ZM245.015 360.697L269.795 420.057L270.164 419.902L245.384 360.542L245.015 360.697ZM232.04 360.82H245.2V360.42H232.04V360.82Z" fill="white"/>
</svg>
