<svg width="976" height="476" viewBox="0 0 976 476" fill="none" xmlns="http://www.w3.org/2000/svg">
<path opacity="0.2" d="M55.5599 23.9L55.4002 24.0205L55.5589 24.2308L55.7188 24.0214L55.5599 23.9ZM65.0799 11.44L65.2388 11.5614L65.3437 11.4242L65.2232 11.3004L65.0799 11.44ZM30.4999 19.21L30.6459 19.3467L30.4999 19.21ZM30.3599 33.14L30.4968 32.994L30.4901 32.9882L30.3599 33.14ZM41.5599 38.46L41.4923 38.6483L41.4949 38.6492L41.5599 38.46ZM60.4599 47.84L60.3247 47.9875L60.3265 47.9891L60.4599 47.84ZM59.4099 89.63L59.5467 89.7759L59.4099 89.63ZM3.7599 80.46L3.62193 80.3152L3.49893 80.4324L3.59471 80.5728L3.7599 80.46ZM15.6599 69.12L15.8396 69.0322L15.7196 68.7868L15.5219 68.9752L15.6599 69.12ZM24.1999 78.5L24.2982 78.3258L24.1999 78.5ZM46.0399 60.3L46.1786 60.1558L46.175 60.1526L46.0399 60.3ZM31.6199 53.44L31.6846 53.2508L31.6839 53.2505L31.6199 53.44ZM16.0799 45.32L16.213 45.1707L16.211 45.169L16.0799 45.32ZM97.5999 2.62002V2.42002H97.4337L97.4033 2.58346L97.5999 2.62002ZM80.2399 96L80.0433 95.9635L79.9993 96.2H80.2399V96ZM110.76 2.62002L110.944 2.54297L110.893 2.42002H110.76V2.62002ZM135.54 61.98L135.355 62.0571L135.536 62.4894L135.723 62.06L135.54 61.98ZM161.44 2.62002V2.42002H161.309L161.257 2.54004L161.44 2.62002ZM174.6 2.62002L174.797 2.5869L174.769 2.42002H174.6V2.62002ZM190.28 96V96.2H190.516L190.477 95.9669L190.28 96ZM171.8 96L171.602 96.0289L171.627 96.2H171.8V96ZM163.4 38.46L163.598 38.4311L163.497 37.7373L163.217 38.3802L163.4 38.46ZM138.34 96V96.2H138.471L138.523 96.0799L138.34 96ZM132.18 96L131.995 96.0768L132.046 96.2H132.18V96ZM108.24 38.46L108.425 38.3832L108.156 37.7389L108.043 38.4274L108.24 38.46ZM98.7199 96V96.2H98.8895L98.9172 96.0327L98.7199 96ZM272.36 96L272.176 96.0777L272.227 96.2H272.36V96ZM264.1 76.4L264.284 76.3223L264.233 76.2H264.1V76.4ZM291.96 96V96.2H292.26L292.144 95.9228L291.96 96ZM252.9 2.62002L253.084 2.54284L253.033 2.42002H252.9V2.62002ZM238.62 2.62002V2.42002H238.488L238.436 2.54097L238.62 2.62002ZM198.44 96L198.256 95.921L198.136 96.2H198.44V96ZM218.18 96V96.2H218.313L218.364 96.0777L218.18 96ZM226.44 76.4V76.2H226.307L226.256 76.3223L226.44 76.4ZM245.48 27.96L245.666 27.8864L245.48 27.4166L245.294 27.8864L245.48 27.96ZM258.78 61.56V61.76H259.074L258.966 61.4864L258.78 61.56ZM232.18 61.56L231.994 61.4864L231.886 61.76H232.18V61.56ZM304.88 2.62002V2.42002H304.68V2.62002H304.88ZM304.88 96H304.68V96.2H304.88V96ZM323.08 96V96.2H323.28V96H323.08ZM323.08 58.48V58.28H322.88V58.48H323.08ZM325.32 58.48L325.487 58.3694L325.427 58.28H325.32V58.48ZM350.24 96L350.073 96.1107L350.133 96.2H350.24V96ZM372.92 96V96.2H373.317L373.081 95.881L372.92 96ZM343.8 56.66L343.763 56.4634L343.449 56.5219L343.639 56.779L343.8 56.66ZM354.02 52.6L353.907 52.4346L353.905 52.4362L354.02 52.6ZM355.7 9.62002L355.829 9.46751L355.828 9.46638L355.7 9.62002ZM323.08 45.6H322.88V45.8H323.08V45.6ZM323.08 17.46V17.26H322.88V17.46H323.08ZM332.67 45.25L332.638 45.0526L332.67 45.25ZM338.34 43.71L338.404 43.8994L338.34 43.71ZM344.01 39.37L343.845 39.2566L344.01 39.37ZM332.88 17.74L332.853 17.9383L332.88 17.74ZM437.64 18.3V18.5H437.84V18.3H437.64ZM416.64 18.3V18.1H416.44V18.3H416.64ZM437.64 2.62002H437.84V2.42002H437.64V2.62002ZM377.44 2.62002V2.42002H377.24V2.62002H377.44ZM377.44 18.3H377.24V18.5H377.44V18.3ZM398.44 18.3H398.64V18.1H398.44V18.3ZM398.44 96H398.24V96.2H398.44V96ZM416.64 96V96.2H416.84V96H416.64ZM486.12 18.3V18.1H485.92V18.3H486.12ZM507.12 18.3V18.5H507.32V18.3H507.12ZM486.12 96V96.2H486.32V96H486.12ZM467.92 96H467.72V96.2H467.92V96ZM467.92 18.3H468.12V18.1H467.92V18.3ZM446.92 18.3H446.72V18.5H446.92V18.3ZM446.92 2.62002V2.42002H446.72V2.62002H446.92ZM507.12 2.62002H507.32V2.42002H507.12V2.62002ZM520.6 2.62002V2.42002H520.4V2.62002H520.6ZM520.6 96H520.4V96.2H520.6V96ZM538.8 96V96.2H539V96H538.8ZM538.8 58.48V58.28H538.6V58.48H538.8ZM541.04 58.48L541.207 58.3694L541.147 58.28H541.04V58.48ZM565.96 96L565.793 96.1107L565.853 96.2H565.96V96ZM588.64 96V96.2H589.037L588.801 95.881L588.64 96ZM559.52 56.66L559.483 56.4634L559.169 56.5219L559.359 56.779L559.52 56.66ZM569.74 52.6L569.628 52.4346L569.625 52.4362L569.74 52.6ZM571.42 9.62002L571.549 9.46751L571.548 9.46638L571.42 9.62002ZM538.8 45.6H538.6V45.8H538.8V45.6ZM538.8 17.46V17.26H538.6V17.46H538.8ZM548.39 45.25L548.422 45.4475L548.39 45.25ZM554.06 43.71L554.124 43.8994L554.06 43.71ZM559.73 39.37L559.565 39.2566L559.73 39.37ZM554.2 19.21L554.264 19.0207L554.2 19.21ZM548.6 17.74L548.573 17.9383L548.6 17.74ZM654.76 2.62002H654.96V2.42002H654.76V2.62002ZM654.76 18.3V18.5H654.96V18.3H654.76ZM602.96 2.62002V2.42002H602.76V2.62002H602.96ZM602.96 96H602.76V96.2H602.96V96ZM654.76 96V96.2H654.96V96H654.76ZM654.76 80.32H654.96V80.12H654.76V80.32ZM621.16 80.32H620.96V80.52H621.16V80.32ZM621.16 54.84V54.64H620.96V54.84H621.16ZM653.36 54.84V55.04H653.56V54.84H653.36ZM653.36 39.16H653.56V38.96H653.36V39.16ZM621.16 39.16H620.96V39.36H621.16V39.16ZM621.16 18.3V18.1H620.96V18.3H621.16ZM674.4 96H674.2V96.2H674.4V96ZM692.6 96V96.2H692.8V96H692.6ZM674.4 2.62002V2.42002H674.2V2.62002H674.4ZM687 2.62002L687.148 2.48522L687.088 2.42002H687V2.62002ZM743.84 64.92L743.692 65.0548L744.04 65.436V64.92H743.84ZM743.84 2.62002V2.42002H743.64V2.62002H743.84ZM762.04 2.62002H762.24V2.42002H762.04V2.62002ZM762.04 96V96.2H762.24V96H762.04ZM749.44 96L749.292 96.1347L749.352 96.2H749.44V96ZM692.6 33.56L692.748 33.4254L692.4 33.0432V33.56H692.6ZM785.32 2.62002V2.42002H785.12V2.62002H785.32ZM785.32 96H785.12V96.2H785.32V96ZM828.16 94.18L828.205 94.3748L828.16 94.18ZM843.56 87.04L843.445 86.8763L843.445 86.8765L843.56 87.04ZM857.63 27.96L857.449 28.0464L857.63 27.96ZM844.4 11.72L844.52 11.5603L844.519 11.5596L844.4 11.72ZM829 4.51002L829.044 4.31506L829 4.51002ZM803.52 80.32H803.32V80.52H803.52V80.32ZM803.52 18.3V18.1H803.32V18.3H803.52ZM831.94 74.16L831.823 73.9976L831.823 73.9978L831.94 74.16ZM840.48 63.59L840.298 63.506L840.48 63.59ZM840.55 35.31L840.732 35.2276V35.2275L840.55 35.31ZM832.08 24.46L832.202 24.3015L832.199 24.2997L832.08 24.46ZM936.56 11.44L936.719 11.5614L936.824 11.4242L936.703 11.3004L936.56 11.44ZM927.04 23.9L926.88 24.0205L927.039 24.2308L927.199 24.0214L927.04 23.9ZM887.56 45.32L887.693 45.1707L887.691 45.169L887.56 45.32ZM903.1 53.44L903.165 53.2508L903.164 53.2505L903.1 53.44ZM917.52 60.3L917.659 60.1558L917.655 60.1526L917.52 60.3ZM917.1 78.01L916.968 77.8598L917.1 78.01ZM887.14 69.12L887.32 69.0322L887.2 68.7868L887.002 68.9752L887.14 69.12ZM875.24 80.46L875.102 80.3152L874.979 80.4324L875.075 80.5728L875.24 80.46ZM930.89 89.63L931.027 89.7759L930.89 89.63ZM931.94 47.84L931.805 47.9875L931.807 47.9891L931.94 47.84ZM913.04 38.46L912.972 38.6483L912.975 38.6492L913.04 38.46ZM901.84 33.14L901.977 32.994L901.97 32.9882L901.84 33.14ZM957.04 94.74L956.895 94.8784L956.902 94.8846L957.04 94.74ZM957.11 79.13L957.251 79.2714V79.2714L957.11 79.13ZM972.65 79.13L972.508 79.2714V79.2714L972.65 79.13ZM972.65 94.67L972.791 94.8114V94.8114L972.65 94.67ZM9.6399 181.62V181.42H9.4399V181.62H9.6399ZM9.6399 275H9.4399V275.2H9.6399V275ZM64.6599 267.44L64.7925 267.59L64.7933 267.589L64.6599 267.44ZM65.9199 231.04L66.0583 230.896L66.0572 230.895L65.9199 231.04ZM53.7399 225.16L53.6422 224.986L53.1377 225.268L53.7089 225.358L53.7399 225.16ZM55.5599 187.5L55.4371 187.658L55.4375 187.658L55.5599 187.5ZM27.8399 220.4H27.6399V220.6H27.8399V220.4ZM27.8399 196.46V196.26H27.6399V196.46H27.8399ZM35.6099 220.33L35.5982 220.13H35.5982L35.6099 220.33ZM39.1099 219.56L39.1679 219.751H39.1679L39.1099 219.56ZM43.0299 217.67L42.911 217.509V217.509L43.0299 217.67ZM45.8999 214.03L46.0778 214.122L45.8999 214.03ZM27.8399 234.4V234.2H27.6399V234.4H27.8399ZM27.8399 260.16H27.6399V260.36H27.8399V260.16ZM47.0199 236.22L46.9357 236.401L46.938 236.402L47.0199 236.22ZM48.1399 257.64L48.2403 257.813L48.2409 257.813L48.1399 257.64ZM143.94 255.4L144.124 255.322L144.073 255.2H143.94V255.4ZM152.2 275L152.016 275.078L152.067 275.2H152.2V275ZM106.28 255.4V255.2H106.147L106.096 255.322L106.28 255.4ZM98.0199 275V275.2H98.1526L98.2042 275.078L98.0199 275ZM78.2799 275L78.0962 274.921L77.9761 275.2H78.2799V275ZM118.46 181.62V181.42H118.328L118.276 181.541L118.46 181.62ZM132.74 181.62L132.924 181.543L132.873 181.42H132.74V181.62ZM171.8 275V275.2H172.1L171.984 274.923L171.8 275ZM112.02 240.56L111.834 240.486L111.726 240.76H112.02V240.56ZM138.62 240.56V240.76H138.914L138.806 240.486L138.62 240.56ZM125.32 206.96L125.506 206.886L125.32 206.417L125.134 206.886L125.32 206.96ZM184.72 181.62V181.42H184.52V181.62H184.72ZM184.72 275H184.52V275.2H184.72V275ZM202.92 181.62H203.12V181.42H202.92V181.62ZM202.92 259.32H202.72V259.52H202.92V259.32ZM232.88 259.32V259.52H233.08V259.32H232.88ZM232.88 181.62V181.42H232.68V181.62H232.88ZM251.08 181.62H251.28V181.42H251.08V181.62ZM251.08 259.32H250.88V259.52H251.08V259.32ZM281.04 259.32V259.52H281.24V259.32H281.04ZM281.04 181.62V181.42H280.84V181.62H281.04ZM299.24 181.62H299.44V181.42H299.24V181.62ZM299.24 275V275.2H299.44V275H299.24ZM346.78 181.62V181.42H346.452L346.602 181.712L346.78 181.62ZM368.06 181.62L368.239 181.53L368.183 181.42H368.06V181.62ZM381.5 248.96L381.679 249.049L381.724 248.959L381.678 248.868L381.5 248.96ZM368.48 275L368.301 274.911L368.156 275.2H368.48V275ZM388.36 275V275.2H388.488L388.541 275.084L388.36 275ZM431.62 181.62L431.801 181.704L431.933 181.42H431.62V181.62ZM411.74 181.62V181.42H411.608L411.556 181.542L411.74 181.62ZM391.72 228.66L391.541 228.75L391.735 229.135L391.904 228.738L391.72 228.66ZM452.66 181.62V181.42H452.494L452.463 181.583L452.66 181.62ZM435.3 275L435.103 274.963L435.059 275.2H435.3V275ZM465.82 181.62L466.004 181.543L465.953 181.42H465.82V181.62ZM490.6 240.98L490.415 241.057L490.596 241.489L490.783 241.06L490.6 240.98ZM516.5 181.62V181.42H516.369L516.317 181.54L516.5 181.62ZM529.66 181.62L529.857 181.587L529.829 181.42H529.66V181.62ZM545.34 275V275.2H545.576L545.537 274.967L545.34 275ZM526.86 275L526.662 275.029L526.687 275.2H526.86V275ZM518.46 217.46L518.658 217.431L518.557 216.737L518.277 217.38L518.46 217.46ZM493.4 275V275.2H493.531L493.583 275.08L493.4 275ZM487.24 275L487.055 275.077L487.106 275.2H487.24V275ZM463.3 217.46L463.485 217.383L463.216 216.739L463.103 217.427L463.3 217.46ZM453.78 275V275.2H453.95L453.977 275.033L453.78 275ZM582.06 181.62H582.26V181.42H582.06V181.62ZM582.06 217.74H581.86V217.94H582.06V217.74ZM563.86 181.62V181.42H563.66V181.62H563.86ZM563.86 275H563.66V275.2H563.86V275ZM582.06 275V275.2H582.26V275H582.06ZM582.06 233.42V233.22H581.86V233.42H582.06ZM621.54 233.42H621.74V233.22H621.54V233.42ZM621.54 275H621.34V275.2H621.54V275ZM639.74 275V275.2H639.94V275H639.74ZM639.74 181.62H639.94V181.42H639.74V181.62ZM621.54 181.62V181.42H621.34V181.62H621.54ZM621.54 217.74V217.94H621.74V217.74H621.54ZM663.02 181.62V181.42H662.82V181.62H663.02ZM663.02 275H662.82V275.2H663.02V275ZM681.22 181.62H681.42V181.42H681.22V181.62ZM681.22 218.16H681.02V218.36H681.22V218.16ZM718.74 225.86L718.875 225.713L718.875 225.713L718.74 225.86ZM722.38 263.52L722.215 263.406L722.215 263.407L722.38 263.52ZM681.22 233.84V233.64H681.02V233.84H681.22ZM681.22 259.32H681.02V259.52H681.22V259.32ZM704.95 237.62L704.807 237.76L704.95 237.62ZM753.74 181.62H753.94V181.42H753.74V181.62ZM735.54 181.62V181.42H735.34V181.62H735.54ZM753.74 275V275.2H753.94V275H753.74ZM735.54 275H735.34V275.2H735.54V275ZM777.02 181.62V181.42H776.82V181.62H777.02ZM795.22 181.62H795.42V181.42H795.22V181.62ZM777.02 275H776.82V275.2H777.02V275ZM789.9 275V275.2H789.995L790.055 275.127L789.9 275ZM841.14 212.56H841.34V212.001L840.985 212.433L841.14 212.56ZM841.14 275H840.94V275.2H841.14V275ZM859.34 275V275.2H859.54V275H859.34ZM859.34 181.62H859.54V181.42H859.34V181.62ZM846.46 181.62V181.42H846.366L846.306 181.493L846.46 181.62ZM795.22 243.78H795.02V244.337L795.374 243.907L795.22 243.78ZM805.58 151.8L805.767 151.729L805.695 151.539L805.506 151.614L805.58 151.8ZM792.98 156.84L792.906 156.654L792.722 156.728L792.793 156.912L792.98 156.84ZM830.78 151.8L830.854 151.614L830.665 151.539L830.593 151.729L830.78 151.8ZM843.38 156.84L843.567 156.912L843.637 156.728L843.454 156.654L843.38 156.84ZM834.07 168.32L834.178 168.488L834.07 168.32ZM802.29 168.32L802.182 168.488L802.29 168.32ZM18.5999 360.62V360.42H18.3999V360.62H18.5999ZM81.5999 360.62H81.7999V360.42H81.5999V360.62ZM15.2399 425.72L15.4256 425.794L15.426 425.793L15.2399 425.72ZM0.399902 438.32L0.405783 438.12L0.199902 438.114V438.32H0.399902ZM0.399902 475H0.199902V475.2H0.399902V475ZM17.1999 475V475.2H17.3999V475H17.1999ZM17.1999 454V453.8H16.9999V454H17.1999ZM74.5999 454H74.7999V453.8H74.5999V454ZM74.5999 475H74.3999V475.2H74.5999V475ZM91.3999 475V475.2H91.5999V475H91.3999ZM91.3999 438.32H91.5999V438.12H91.3999V438.32ZM81.5999 438.32H81.3999V438.52H81.5999V438.32ZM36.2399 376.3V376.1H36.0399V376.3H36.2399ZM33.0199 427.26L33.2062 427.333L33.207 427.331L33.0199 427.26ZM25.7399 438.32L25.6006 438.176L25.2467 438.52H25.7399V438.32ZM63.3999 438.32V438.52H63.5999V438.32H63.3999ZM63.3999 376.3H63.5999V376.1H63.3999V376.3ZM114.82 372.24L114.68 372.097L114.679 372.098L114.82 372.24ZM114.89 442.45L115.03 442.307L114.89 442.45ZM186.71 442.45L186.57 442.307L186.71 442.45ZM128.4 430.62L128.255 430.758L128.256 430.759L128.4 430.62ZM173.2 430.55L173.344 430.689L173.2 430.55ZM173.13 384.14L172.986 384.279L173.13 384.14ZM128.47 384.14L128.614 384.279L128.47 384.14ZM214.68 454L214.483 453.963L214.439 454.2H214.68V454ZM232.04 360.62V360.42H231.874L231.843 360.583L232.04 360.62ZM233.16 454V454.2H233.33L233.357 454.033L233.16 454ZM242.68 396.46L242.865 396.383L242.596 395.739L242.483 396.427L242.68 396.46ZM266.62 454L266.435 454.077L266.486 454.2H266.62V454ZM272.78 454V454.2H272.911L272.963 454.08L272.78 454ZM297.84 396.46L298.038 396.431L297.937 395.737L297.657 396.38L297.84 396.46ZM306.24 454L306.042 454.029L306.067 454.2H306.24V454ZM324.72 454V454.2H324.956L324.917 453.967L324.72 454ZM309.04 360.62L309.237 360.587L309.209 360.42H309.04V360.62ZM295.88 360.62V360.42H295.749L295.697 360.54L295.88 360.62ZM269.98 419.98L269.795 420.057L269.976 420.489L270.163 420.06L269.98 419.98ZM245.2 360.62L245.384 360.543L245.333 360.42H245.2V360.62ZM55.7188 24.0214L65.2388 11.5614L64.921 11.3186L55.401 23.7786L55.7188 24.0214ZM40.2999 16.12C46.3915 16.12 51.4211 18.7458 55.4002 24.0205L55.7196 23.7796C51.672 18.4142 46.5284 15.72 40.2999 15.72V16.12ZM30.6459 19.3467C32.6462 17.2101 35.848 16.12 40.2999 16.12V15.72C35.7917 15.72 32.4603 16.8233 30.3539 19.0733L30.6459 19.3467ZM27.6199 26.84C27.6199 23.9995 28.6258 21.5046 30.6459 19.3467L30.3539 19.0733C28.2673 21.3022 27.2199 23.8938 27.2199 26.84H27.6199ZM30.4901 32.9882C28.5731 31.3451 27.6199 29.3 27.6199 26.84H27.2199C27.2199 29.42 28.2266 31.5749 30.2297 33.2919L30.4901 32.9882ZM41.6275 38.2718C38.6441 37.1996 36.2242 36.2221 34.3657 35.3394C32.5027 34.4545 31.2197 33.6719 30.4967 32.9941L30.2231 33.2859C30.9935 34.0082 32.3237 34.8123 34.1941 35.7007C36.0689 36.5912 38.5023 37.5737 41.4923 38.6482L41.6275 38.2718ZM60.595 47.6926C57.2023 44.5826 50.8679 41.4452 41.6249 38.2709L41.4949 38.6492C50.732 41.8215 56.9974 44.9374 60.3248 47.9874L60.595 47.6926ZM68.6399 67.44C68.6399 59.0867 65.9628 52.4953 60.5933 47.691L60.3265 47.9891C65.5971 52.7048 68.2399 59.18 68.2399 67.44H68.6399ZM59.5467 89.7759C65.6117 84.0871 68.6399 76.6354 68.6399 67.44H68.2399C68.2399 76.5381 65.2482 83.8796 59.2731 89.4841L59.5467 89.7759ZM35.9599 98.3C45.6152 98.3 53.4836 95.463 59.5467 89.7759L59.2731 89.4841C53.2962 95.0904 45.5314 97.9 35.9599 97.9V98.3ZM3.59471 80.5728C11.6561 92.3836 22.4492 98.3 35.9599 98.3V97.9C22.5905 97.9 11.9172 92.0566 3.92509 80.3473L3.59471 80.5728ZM15.5219 68.9752L3.62193 80.3152L3.89788 80.6048L15.7979 69.2648L15.5219 68.9752ZM24.2982 78.3258C20.6975 76.2947 17.8773 73.2003 15.8396 69.0322L15.4802 69.2079C17.5492 73.4398 20.4223 76.5987 24.1016 78.6742L24.2982 78.3258ZM35.2599 81.38C31.5649 81.38 27.9118 80.3643 24.2982 78.3258L24.1016 78.6742C27.768 80.7424 31.4882 81.78 35.2599 81.78V81.38ZM45.4878 77.8598C42.8236 80.2025 39.4198 81.38 35.2599 81.38V81.78C39.5 81.78 43.0029 80.5775 45.752 78.1602L45.4878 77.8598ZM49.4799 68.7C49.4799 72.4732 48.1484 75.5204 45.4878 77.8598L45.752 78.1602C48.5048 75.7396 49.8799 72.5802 49.8799 68.7H49.4799ZM45.9013 60.4442C48.2901 62.7411 49.4799 65.4896 49.4799 68.7H49.8799C49.8799 65.3771 48.6431 62.5256 46.1785 60.1559L45.9013 60.4442ZM31.5552 53.6293C35.2377 54.8878 38.2749 56.0867 40.669 57.2256C43.0657 58.3658 44.8064 59.4407 45.9048 60.4474L46.175 60.1526C45.0333 59.106 43.2508 58.0109 40.8408 56.8644C38.4282 55.7167 35.3755 54.5122 31.6846 53.2508L31.5552 53.6293ZM15.9468 45.4693C19.4284 48.5745 24.6367 51.2919 31.5559 53.6295L31.6839 53.2505C24.7897 50.9214 19.6381 48.2255 16.213 45.1708L15.9468 45.4693ZM8.4599 27.96C8.4599 35.2908 10.9532 41.1352 15.9488 45.4711L16.211 45.169C11.3133 40.9181 8.8599 35.1893 8.8599 27.96H8.4599ZM16.2154 8.43178C11.0457 13.8364 8.4599 20.3495 8.4599 27.96H8.8599C8.8599 20.4505 11.4074 14.037 16.5044 8.70826L16.2154 8.43178ZM38.6199 0.32002C28.8762 0.32002 21.3971 3.01453 16.2154 8.43178L16.5044 8.70826C21.5894 3.39212 28.9502 0.72002 38.6199 0.72002V0.32002ZM65.2232 11.3004C58.0906 3.98017 49.2183 0.32002 38.6199 0.32002V0.72002C49.115 0.72002 57.8825 4.33979 64.9367 11.5796L65.2232 11.3004ZM97.4033 2.58346L80.0433 95.9635L80.4365 96.0366L97.7965 2.65657L97.4033 2.58346ZM110.76 2.42002H97.5999V2.82002H110.76V2.42002ZM135.724 61.903L110.944 2.54297L110.575 2.69707L135.355 62.0571L135.724 61.903ZM161.257 2.54004L135.357 61.9L135.723 62.06L161.623 2.7L161.257 2.54004ZM174.6 2.42002H161.44V2.82002H174.6V2.42002ZM190.477 95.9669L174.797 2.5869L174.403 2.65314L190.083 96.0331L190.477 95.9669ZM171.8 96.2H190.28V95.8H171.8V96.2ZM163.202 38.4889L171.602 96.0289L171.998 95.9711L163.598 38.4311L163.202 38.4889ZM138.523 96.0799L163.583 38.5399L163.217 38.3802L138.157 95.9202L138.523 96.0799ZM132.18 96.2H138.34V95.8H132.18V96.2ZM108.055 38.5368L131.995 96.0768L132.365 95.9232L108.425 38.3832L108.055 38.5368ZM98.9172 96.0327L108.437 38.4927L108.043 38.4274L98.5226 95.9674L98.9172 96.0327ZM80.2399 96.2H98.7199V95.8H80.2399V96.2ZM272.544 95.9223L264.284 76.3223L263.916 76.4777L272.176 96.0777L272.544 95.9223ZM291.96 95.8H272.36V96.2H291.96V95.8ZM252.715 2.6972L291.775 96.0772L292.144 95.9228L253.084 2.54284L252.715 2.6972ZM238.62 2.82002H252.9V2.42002H238.62V2.82002ZM198.624 96.0791L238.804 2.69907L238.436 2.54097L198.256 95.921L198.624 96.0791ZM218.18 95.8H198.44V96.2H218.18V95.8ZM226.256 76.3223L217.996 95.9223L218.364 96.0777L226.624 76.4777L226.256 76.3223ZM264.1 76.2H226.44V76.6H264.1V76.2ZM245.294 28.0336L258.594 61.6336L258.966 61.4864L245.666 27.8864L245.294 28.0336ZM232.366 61.6336L245.666 28.0336L245.294 27.8864L231.994 61.4864L232.366 61.6336ZM258.78 61.36H232.18V61.76H258.78V61.36ZM304.88 2.82002H331.9V2.42002H304.88V2.82002ZM305.08 96V2.62002H304.68V96H305.08ZM323.08 95.8H304.88V96.2H323.08V95.8ZM322.88 58.48V96H323.28V58.48H322.88ZM325.32 58.28H323.08V58.68H325.32V58.28ZM350.407 95.8894L325.487 58.3694L325.153 58.5907L350.073 96.1107L350.407 95.8894ZM372.92 95.8H350.24V96.2H372.92V95.8ZM343.639 56.779L372.759 96.119L373.081 95.881L343.961 56.541L343.639 56.779ZM353.905 52.4362C351.133 54.3769 347.754 55.7209 343.763 56.4634L343.837 56.8566C347.873 56.1058 351.307 54.7431 354.135 52.7639L353.905 52.4362ZM364.74 30.62C364.74 40.2685 361.126 47.5294 353.908 52.4346L354.132 52.7654C361.473 47.7772 365.14 40.385 365.14 30.62H364.74ZM355.571 9.77252C361.682 14.9577 364.74 21.8997 364.74 30.62H365.14C365.14 21.7936 362.038 14.7358 355.829 9.46752L355.571 9.77252ZM331.9 2.82002C342.139 2.82002 350.02 5.14711 355.572 9.77366L355.828 9.46638C350.18 4.75955 342.195 2.42002 331.9 2.42002V2.82002ZM323.28 45.6V17.46H322.88V45.6H323.28ZM328.26 45.4H323.08V45.8H328.26V45.4ZM332.638 45.0526C331.202 45.2842 329.743 45.4 328.26 45.4V45.8C329.764 45.8 331.244 45.6825 332.702 45.4475L332.638 45.0526ZM338.276 43.5207C335.947 44.3125 334.069 44.8218 332.638 45.0526L332.702 45.4475C334.164 45.2116 336.066 44.6942 338.404 43.8994L338.276 43.5207ZM343.845 39.2566C342.422 41.3225 340.567 42.7417 338.276 43.5207L338.404 43.8994C340.78 43.0917 342.704 41.6176 344.175 39.4835L343.845 39.2566ZM345.98 31.46C345.98 34.6028 345.264 37.1973 343.845 39.2566L344.175 39.4835C345.649 37.3427 346.38 34.6639 346.38 31.46H345.98ZM343.913 23.661C345.287 25.7206 345.98 28.316 345.98 31.46H346.38C346.38 28.2573 345.673 25.5795 344.246 23.4391L343.913 23.661ZM338.415 19.3994C340.706 20.1782 342.537 21.5967 343.913 23.661L344.246 23.4391C342.823 21.3034 340.92 19.8286 338.544 19.0207L338.415 19.3994ZM332.853 17.9383C334.234 18.1224 336.087 18.6076 338.415 19.3994L338.544 19.0207C336.206 18.2257 334.325 17.731 332.906 17.5418L332.853 17.9383ZM328.54 17.66C330.025 17.66 331.463 17.7528 332.853 17.9383L332.906 17.5418C331.497 17.3539 330.042 17.26 328.54 17.26V17.66ZM323.08 17.66H328.54V17.26H323.08V17.66ZM437.64 18.1H416.64V18.5H437.64V18.1ZM437.44 2.62002V18.3H437.84V2.62002H437.44ZM377.44 2.82002H437.64V2.42002H377.44V2.82002ZM377.64 18.3V2.62002H377.24V18.3H377.64ZM398.44 18.1H377.44V18.5H398.44V18.1ZM398.64 96V18.3H398.24V96H398.64ZM416.64 95.8H398.44V96.2H416.64V95.8ZM416.44 18.3V96H416.84V18.3H416.44ZM486.12 18.5H507.12V18.1H486.12V18.5ZM486.32 96V18.3H485.92V96H486.32ZM467.92 96.2H486.12V95.8H467.92V96.2ZM467.72 18.3V96H468.12V18.3H467.72ZM446.92 18.5H467.92V18.1H446.92V18.5ZM446.72 2.62002V18.3H447.12V2.62002H446.72ZM507.12 2.42002H446.92V2.82002H507.12V2.42002ZM507.32 18.3V2.62002H506.92V18.3H507.32ZM520.6 2.82002H547.62V2.42002H520.6V2.82002ZM520.8 96V2.62002H520.4V96H520.8ZM538.8 95.8H520.6V96.2H538.8V95.8ZM538.6 58.48V96H539V58.48H538.6ZM541.04 58.28H538.8V58.68H541.04V58.28ZM566.127 95.8894L541.207 58.3694L540.873 58.5907L565.793 96.1107L566.127 95.8894ZM588.64 95.8H565.96V96.2H588.64V95.8ZM559.359 56.779L588.479 96.119L588.801 95.881L559.681 56.541L559.359 56.779ZM569.625 52.4362C566.853 54.3769 563.474 55.7209 559.483 56.4634L559.556 56.8566C563.593 56.1058 567.027 54.7431 569.855 52.7639L569.625 52.4362ZM580.46 30.62C580.46 40.2685 576.846 47.5294 569.628 52.4346L569.852 52.7654C577.193 47.7772 580.86 40.385 580.86 30.62H580.46ZM571.291 9.77252C577.402 14.9577 580.46 21.8997 580.46 30.62H580.86C580.86 21.7936 577.758 14.7358 571.549 9.46752L571.291 9.77252ZM547.62 2.82002C557.859 2.82002 565.74 5.14711 571.292 9.77366L571.548 9.46638C565.9 4.75955 557.915 2.42002 547.62 2.42002V2.82002ZM539 45.6V17.46H538.6V45.6H539ZM543.98 45.4H538.8V45.8H543.98V45.4ZM548.358 45.0526C546.922 45.2842 545.463 45.4 543.98 45.4V45.8C545.484 45.8 546.964 45.6825 548.422 45.4475L548.358 45.0526ZM553.996 43.5207C551.667 44.3125 549.789 44.8218 548.358 45.0526L548.422 45.4475C549.884 45.2116 551.786 44.6942 554.124 43.8994L553.996 43.5207ZM559.565 39.2566C558.142 41.3225 556.287 42.7417 553.996 43.5207L554.124 43.8994C556.5 43.0917 558.424 41.6176 559.895 39.4835L559.565 39.2566ZM561.7 31.46C561.7 34.6028 560.984 37.1973 559.565 39.2566L559.895 39.4835C561.369 37.3427 562.1 34.6639 562.1 31.46H561.7ZM559.634 23.661C561.007 25.7206 561.7 28.316 561.7 31.46H562.1C562.1 28.2573 561.393 25.5795 559.966 23.4391L559.634 23.661ZM554.136 19.3994C556.426 20.1782 558.257 21.5967 559.634 23.661L559.966 23.4391C558.542 21.3034 556.64 19.8286 554.264 19.0207L554.136 19.3994ZM548.573 17.9383C549.955 18.1224 551.807 18.6076 554.136 19.3994L554.264 19.0207C551.926 18.2257 550.045 17.731 548.626 17.5418L548.573 17.9383ZM544.26 17.66C545.745 17.66 547.183 17.7528 548.573 17.9383L548.626 17.5418C547.217 17.3539 545.762 17.26 544.26 17.26V17.66ZM538.8 17.66H544.26V17.26H538.8V17.66ZM654.56 2.62002V18.3H654.96V2.62002H654.56ZM602.96 2.82002H654.76V2.42002H602.96V2.82002ZM603.16 96V2.62002H602.76V96H603.16ZM654.76 95.8H602.96V96.2H654.76V95.8ZM654.56 80.32V96H654.96V80.32H654.56ZM621.16 80.52H654.76V80.12H621.16V80.52ZM620.96 54.84V80.32H621.36V54.84H620.96ZM653.36 54.64H621.16V55.04H653.36V54.64ZM653.16 39.16V54.84H653.56V39.16H653.16ZM621.16 39.36H653.36V38.96H621.16V39.36ZM620.96 18.3V39.16H621.36V18.3H620.96ZM654.76 18.1H621.16V18.5H654.76V18.1ZM674.4 96.2H692.6V95.8H674.4V96.2ZM674.2 2.62002V96H674.6V2.62002H674.2ZM687 2.42002H674.4V2.82002H687V2.42002ZM743.988 64.7852L687.148 2.48522L686.852 2.75482L743.692 65.0548L743.988 64.7852ZM743.64 2.62002V64.92H744.04V2.62002H743.64ZM762.04 2.42002H743.84V2.82002H762.04V2.42002ZM762.24 96V2.62002H761.84V96H762.24ZM749.44 96.2H762.04V95.8H749.44V96.2ZM692.452 33.6947L749.292 96.1347L749.588 95.8654L692.748 33.4254L692.452 33.6947ZM692.8 96V33.56H692.4V96H692.8ZM785.32 2.82002H809.68V2.42002H785.32V2.82002ZM785.52 96V2.62002H785.12V96H785.52ZM809.4 95.8H785.32V96.2H809.4V95.8ZM828.115 93.9852C822.907 95.1941 816.67 95.8 809.4 95.8V96.2C816.69 96.2 822.959 95.5926 828.205 94.3748L828.115 93.9852ZM843.445 86.8765C838.423 90.4105 833.313 92.7785 828.115 93.9852L828.205 94.3748C833.46 93.1549 838.617 90.7629 843.675 87.2036L843.445 86.8765ZM862.12 49.38C862.12 65.6535 855.894 78.1433 843.445 86.8763L843.675 87.2038C856.239 78.39 862.52 65.7733 862.52 49.38H862.12ZM857.449 28.0464C860.562 34.5509 862.12 41.6611 862.12 49.38H862.52C862.52 41.6056 860.951 34.4359 857.81 27.8737L857.449 28.0464ZM844.279 11.8797C849.947 16.1535 854.336 21.5414 857.449 28.0464L857.81 27.8737C854.67 21.3119 850.24 15.8733 844.52 11.5603L844.279 11.8797ZM828.955 4.70498C834.434 5.95847 839.542 8.34946 844.28 11.8804L844.519 11.5596C839.738 7.99721 834.58 5.58158 829.044 4.31506L828.955 4.70498ZM809.68 2.82002C817.043 2.82002 823.467 3.44916 828.955 4.70498L829.044 4.31506C823.519 3.05087 817.064 2.42002 809.68 2.42002V2.82002ZM803.72 80.32V18.3H803.32V80.32H803.72ZM809.12 80.12H803.52V80.52H809.12V80.12ZM831.823 73.9978C826.174 78.0725 818.613 80.12 809.12 80.12V80.52C818.667 80.52 826.319 78.4609 832.057 74.3222L831.823 73.9978ZM840.298 63.506C838.258 67.9109 835.433 71.4061 831.823 73.9976L832.057 74.3225C835.727 71.6872 838.595 68.1358 840.661 63.6741L840.298 63.506ZM843.36 49.38C843.36 54.392 842.339 59.0998 840.298 63.506L840.661 63.6741C842.727 59.2135 843.76 54.4481 843.76 49.38H843.36ZM840.368 35.3925C842.362 39.7995 843.36 44.4613 843.36 49.38H843.76C843.76 44.4054 842.751 39.6873 840.732 35.2276L840.368 35.3925ZM831.958 24.6185C835.57 27.3973 838.374 30.9872 840.368 35.3925L840.732 35.2275C838.713 30.7661 835.869 27.1227 832.202 24.3015L831.958 24.6185ZM809.12 18.5C818.895 18.5 826.5 20.5483 831.96 24.6203L832.199 24.2997C826.646 20.1583 818.945 18.1 809.12 18.1V18.5ZM803.52 18.5H809.12V18.1H803.52V18.5ZM936.401 11.3186L926.881 23.7786L927.199 24.0214L936.719 11.5614L936.401 11.3186ZM910.1 0.72002C920.595 0.72002 929.362 4.33979 936.417 11.5796L936.703 11.3004C929.571 3.98017 920.698 0.32002 910.1 0.32002V0.72002ZM887.984 8.70826C893.069 3.39212 900.43 0.72002 910.1 0.72002V0.32002C900.356 0.32002 892.877 3.01453 887.695 8.43178L887.984 8.70826ZM880.34 27.96C880.34 20.4505 882.887 14.037 887.984 8.70826L887.695 8.43178C882.526 13.8364 879.94 20.3495 879.94 27.96H880.34ZM887.691 45.169C882.793 40.9181 880.34 35.1893 880.34 27.96H879.94C879.94 35.2908 882.433 41.1352 887.429 45.4711L887.691 45.169ZM903.164 53.2505C896.27 50.9214 891.118 48.2255 887.693 45.1708L887.427 45.4693C890.909 48.5745 896.117 51.2919 903.036 53.6295L903.164 53.2505ZM917.655 60.1526C916.513 59.106 914.731 58.0109 912.321 56.8644C909.908 55.7167 906.856 54.5122 903.165 53.2508L903.035 53.6293C906.718 54.8878 909.755 56.0867 912.149 57.2256C914.546 58.3658 916.286 59.4407 917.385 60.4474L917.655 60.1526ZM921.36 68.7C921.36 65.3771 920.123 62.5256 917.659 60.1558L917.381 60.4442C919.77 62.7411 920.96 65.4896 920.96 68.7H921.36ZM917.232 78.1602C919.985 75.7396 921.36 72.5802 921.36 68.7H920.96C920.96 72.4732 919.628 75.5204 916.968 77.8598L917.232 78.1602ZM906.74 81.78C910.98 81.78 914.483 80.5775 917.232 78.1602L916.968 77.8598C914.304 80.2025 910.9 81.38 906.74 81.38V81.78ZM895.582 78.6742C899.248 80.7424 902.968 81.78 906.74 81.78V81.38C903.045 81.38 899.392 80.3643 895.778 78.3258L895.582 78.6742ZM886.96 69.2079C889.029 73.4398 891.902 76.5987 895.582 78.6742L895.778 78.3258C892.178 76.2947 889.357 73.2003 887.32 69.0322L886.96 69.2079ZM875.378 80.6048L887.278 69.2648L887.002 68.9752L875.102 80.3152L875.378 80.6048ZM907.44 97.9C894.07 97.9 883.397 92.0566 875.405 80.3473L875.075 80.5728C883.136 92.3836 893.929 98.3 907.44 98.3V97.9ZM930.753 89.4841C924.776 95.0904 917.011 97.9 907.44 97.9V98.3C917.095 98.3 924.964 95.463 931.027 89.7759L930.753 89.4841ZM939.72 67.44C939.72 76.5381 936.728 83.8796 930.753 89.4841L931.027 89.7759C937.092 84.0871 940.12 76.6354 940.12 67.44H939.72ZM931.807 47.9891C937.077 52.7048 939.72 59.18 939.72 67.44H940.12C940.12 59.0867 937.443 52.4953 932.073 47.691L931.807 47.9891ZM912.975 38.6492C922.212 41.8215 928.477 44.9374 931.805 47.9874L932.075 47.6926C928.682 44.5826 922.348 41.4452 913.105 38.2709L912.975 38.6492ZM901.703 33.2859C902.474 34.0082 903.804 34.8123 905.674 35.7007C907.549 36.5912 909.982 37.5737 912.972 38.6482L913.108 38.2718C910.124 37.1996 907.704 36.2221 905.846 35.3394C903.983 34.4545 902.7 33.6719 901.977 32.9941L901.703 33.2859ZM898.7 26.84C898.7 29.42 899.707 31.5749 901.71 33.2919L901.97 32.9882C900.053 31.3451 899.1 29.3 899.1 26.84H898.7ZM901.834 19.0733C899.747 21.3022 898.7 23.8938 898.7 26.84H899.1C899.1 23.9995 900.106 21.5046 902.126 19.3467L901.834 19.0733ZM911.78 15.72C907.272 15.72 903.94 16.8233 901.834 19.0733L902.126 19.3467C904.126 17.2101 907.328 16.12 911.78 16.12V15.72ZM927.2 23.7796C923.152 18.4142 918.008 15.72 911.78 15.72V16.12C917.871 16.12 922.901 18.7458 926.88 24.0205L927.2 23.7796ZM953.76 86.9C953.76 90.0294 954.805 92.6929 956.895 94.8783L957.184 94.6018C955.168 92.4938 954.16 89.9306 954.16 86.9H953.76ZM956.969 78.9886C954.829 81.1276 953.76 83.7691 953.76 86.9H954.16C954.16 83.8708 955.19 81.3324 957.251 79.2714L956.969 78.9886ZM964.88 75.78C961.749 75.78 959.107 76.8496 956.969 78.9886L957.251 79.2714C959.312 77.2105 961.851 76.18 964.88 76.18V75.78ZM972.791 78.9886C970.652 76.8496 968.011 75.78 964.88 75.78V76.18C967.909 76.18 970.447 77.2105 972.508 79.2714L972.791 78.9886ZM976 86.9C976 83.7691 974.93 81.1276 972.791 78.9886L972.508 79.2714C974.569 81.3324 975.6 83.8708 975.6 86.9H976ZM972.791 94.8114C974.93 92.6724 976 90.0309 976 86.9H975.6C975.6 89.9292 974.569 92.4676 972.508 94.5286L972.791 94.8114ZM964.88 98.02C968.011 98.02 970.652 96.9505 972.791 94.8114L972.508 94.5286C970.447 96.5896 967.909 97.62 964.88 97.62V98.02ZM956.902 94.8846C959.087 96.9749 961.75 98.02 964.88 98.02V97.62C961.849 97.62 959.286 96.6118 957.178 94.5955L956.902 94.8846ZM9.6399 181.82H32.7399V181.42H9.6399V181.82ZM9.8399 275V181.62H9.4399V275H9.8399ZM40.9999 274.8H9.6399V275.2H40.9999V274.8ZM64.5273 267.29C58.8811 272.289 51.0473 274.8 40.9999 274.8V275.2C51.1126 275.2 59.052 272.671 64.7925 267.59L64.5273 267.29ZM72.4399 248.54C72.4399 256.329 69.7997 262.573 64.5265 267.291L64.7933 267.589C70.1601 262.787 72.8399 256.431 72.8399 248.54H72.4399ZM65.7815 231.184C70.2148 235.433 72.4399 241.21 72.4399 248.54H72.8399C72.8399 241.123 70.585 235.234 66.0583 230.896L65.7815 231.184ZM53.7089 225.358C58.4308 226.098 62.4532 228.041 65.7826 231.185L66.0572 230.895C62.6665 227.692 58.569 225.715 53.7709 224.962L53.7089 225.358ZM64.0399 206.82C64.0399 210.945 63.1711 214.514 61.4413 217.536C59.7118 220.557 57.1151 223.041 53.6422 224.986L53.8376 225.335C57.3648 223.359 60.0181 220.827 61.7885 217.734C63.5587 214.642 64.4399 211.002 64.4399 206.82H64.0399ZM55.4375 187.658C61.1676 192.094 64.0399 198.471 64.0399 206.82H64.4399C64.4399 198.368 61.5256 191.866 55.6823 187.342L55.4375 187.658ZM32.7399 181.82C42.8934 181.82 50.4476 183.777 55.4371 187.658L55.6827 187.342C50.5921 183.383 42.9332 181.42 32.7399 181.42V181.82ZM28.0399 220.4V196.46H27.6399V220.4H28.0399ZM33.0199 220.2H27.8399V220.6H33.0199V220.2ZM35.5982 220.13C34.8093 220.177 33.95 220.2 33.0199 220.2V220.6C33.9565 220.6 34.8238 220.577 35.6216 220.53L35.5982 220.13ZM39.0519 219.369C37.5149 219.834 36.3669 220.085 35.5982 220.13L35.6216 220.53C36.4396 220.482 37.6249 220.219 39.1679 219.751L39.0519 219.369ZM42.911 217.509C41.8594 218.286 40.5744 218.907 39.0519 219.369L39.1679 219.751C40.7254 219.279 42.0537 218.64 43.1488 217.831L42.911 217.509ZM45.722 213.939C44.8911 215.554 43.9521 216.74 42.911 217.509L43.1488 217.831C44.2543 217.014 45.2287 215.772 46.0778 214.122L45.722 213.939ZM46.9599 208.22C46.9599 210.435 46.5446 212.339 45.722 213.939L46.0778 214.122C46.9352 212.454 47.3599 210.485 47.3599 208.22H46.9599ZM43.1218 199.491C45.6713 201.358 46.9599 204.253 46.9599 208.22H47.3599C47.3599 204.16 46.0352 201.129 43.3581 199.169L43.1218 199.491ZM33.1599 196.66C37.2356 196.66 40.5509 197.609 43.1218 199.491L43.3581 199.169C40.7022 197.224 37.2976 196.26 33.1599 196.26V196.66ZM27.8399 196.66H33.1599V196.26H27.8399V196.66ZM27.6399 234.4V260.16H28.0399V234.4H27.6399ZM34.5599 234.2H27.8399V234.6H34.5599V234.2ZM47.1041 236.039C44.4494 234.806 40.2594 234.2 34.5599 234.2V234.6C40.2471 234.6 44.3637 235.207 46.9357 236.401L47.1041 236.039ZM54.0799 246.86C54.0799 244.309 53.5009 242.123 52.333 240.312C51.165 238.5 49.417 237.077 47.1018 236.038L46.938 236.402C49.1961 237.416 50.8781 238.793 51.9968 240.528C53.1156 242.264 53.6799 244.371 53.6799 246.86H54.0799ZM48.2409 257.813C52.137 255.532 54.0799 251.868 54.0799 246.86H53.6799C53.6799 251.746 51.7962 255.268 48.0389 257.467L48.2409 257.813ZM35.6799 260.36C41.109 260.36 45.3031 259.518 48.2403 257.813L48.0395 257.467C45.19 259.122 41.0776 259.96 35.6799 259.96V260.36ZM27.8399 260.36H35.6799V259.96H27.8399V260.36ZM143.756 255.478L152.016 275.078L152.384 274.922L144.124 255.322L143.756 255.478ZM106.28 255.6H143.94V255.2H106.28V255.6ZM98.2042 275.078L106.464 255.478L106.096 255.322L97.8356 274.922L98.2042 275.078ZM78.2799 275.2H98.0199V274.8H78.2799V275.2ZM118.276 181.541L78.0962 274.921L78.4636 275.079L118.644 181.699L118.276 181.541ZM132.74 181.42H118.46V181.82H132.74V181.42ZM171.984 274.923L132.924 181.543L132.555 181.697L171.615 275.077L171.984 274.923ZM152.2 275.2H171.8V274.8H152.2V275.2ZM112.02 240.76H138.62V240.36H112.02V240.76ZM125.134 206.886L111.834 240.486L112.206 240.634L125.506 207.034L125.134 206.886ZM138.806 240.486L125.506 206.886L125.134 207.034L138.434 240.634L138.806 240.486ZM184.52 181.62V275H184.92V181.62H184.52ZM202.92 181.42H184.72V181.82H202.92V181.42ZM203.12 259.32V181.62H202.72V259.32H203.12ZM232.88 259.12H202.92V259.52H232.88V259.12ZM232.68 181.62V259.32H233.08V181.62H232.68ZM251.08 181.42H232.88V181.82H251.08V181.42ZM251.28 259.32V181.62H250.88V259.32H251.28ZM281.04 259.12H251.08V259.52H281.04V259.12ZM280.84 181.62V259.32H281.24V181.62H280.84ZM299.24 181.42H281.04V181.82H299.24V181.42ZM299.44 275V181.62H299.04V275H299.44ZM184.72 275.2H299.24V274.8H184.72V275.2ZM346.78 181.82H368.06V181.42H346.78V181.82ZM381.678 248.868L346.958 181.528L346.602 181.712L381.322 249.052L381.678 248.868ZM368.659 275.089L381.679 249.049L381.321 248.871L368.301 274.911L368.659 275.089ZM388.36 274.8H368.48V275.2H388.36V274.8ZM431.438 181.536L388.178 274.916L388.541 275.084L431.801 181.704L431.438 181.536ZM411.74 181.82H431.62V181.42H411.74V181.82ZM391.904 228.738L411.924 181.698L411.556 181.542L391.536 228.582L391.904 228.738ZM367.881 181.71L391.541 228.75L391.899 228.57L368.239 181.53L367.881 181.71ZM452.463 181.583L435.103 274.963L435.497 275.037L452.857 181.657L452.463 181.583ZM465.82 181.42H452.66V181.82H465.82V181.42ZM490.784 240.903L466.004 181.543L465.635 181.697L490.415 241.057L490.784 240.903ZM516.317 181.54L490.417 240.9L490.783 241.06L516.683 181.7L516.317 181.54ZM529.66 181.42H516.5V181.82H529.66V181.42ZM545.537 274.967L529.857 181.587L529.463 181.653L545.143 275.033L545.537 274.967ZM526.86 275.2H545.34V274.8H526.86V275.2ZM518.262 217.489L526.662 275.029L527.058 274.971L518.658 217.431L518.262 217.489ZM493.583 275.08L518.643 217.54L518.277 217.38L493.217 274.92L493.583 275.08ZM487.24 275.2H493.4V274.8H487.24V275.2ZM463.115 217.537L487.055 275.077L487.425 274.923L463.485 217.383L463.115 217.537ZM453.977 275.033L463.497 217.493L463.103 217.427L453.583 274.967L453.977 275.033ZM435.3 275.2H453.78V274.8H435.3V275.2ZM581.86 181.62V217.74H582.26V181.62H581.86ZM563.86 181.82H582.06V181.42H563.86V181.82ZM564.06 275V181.62H563.66V275H564.06ZM582.06 274.8H563.86V275.2H582.06V274.8ZM581.86 233.42V275H582.26V233.42H581.86ZM621.54 233.22H582.06V233.62H621.54V233.22ZM621.74 275V233.42H621.34V275H621.74ZM639.74 274.8H621.54V275.2H639.74V274.8ZM639.54 181.62V275H639.94V181.62H639.54ZM621.54 181.82H639.74V181.42H621.54V181.82ZM621.74 217.74V181.62H621.34V217.74H621.74ZM582.06 217.94H621.54V217.54H582.06V217.94ZM662.82 181.62V275H663.22V181.62H662.82ZM681.22 181.42H663.02V181.82H681.22V181.42ZM681.42 218.16V181.62H681.02V218.16H681.42ZM695.78 217.96H681.22V218.36H695.78V217.96ZM718.875 225.713C713.229 220.537 705.522 217.96 695.78 217.96V218.36C705.451 218.36 713.051 220.917 718.605 226.007L718.875 225.713ZM727.62 246.72C727.62 238.083 724.707 231.074 718.875 225.713L718.604 226.007C724.346 231.286 727.22 238.184 727.22 246.72H727.62ZM722.544 263.634C725.929 258.745 727.62 253.104 727.62 246.72H727.22C727.22 253.029 725.551 258.589 722.215 263.406L722.544 263.634ZM695.92 275.2C708.375 275.2 717.269 271.358 722.545 263.633L722.215 263.407C717.037 270.988 708.292 274.8 695.92 274.8V275.2ZM663.02 275.2H695.92V274.8H663.02V275.2ZM681.02 233.84V259.32H681.42V233.84H681.02ZM692.14 233.64H681.22V234.04H692.14V233.64ZM705.093 237.48C702.562 234.902 698.224 233.64 692.14 233.64V234.04C698.189 234.04 702.391 235.298 704.807 237.76L705.093 237.48ZM708.86 246.72C708.86 243.121 707.603 240.038 705.093 237.48L704.807 237.76C707.244 240.243 708.46 243.225 708.46 246.72H708.86ZM691.86 259.52C697.479 259.52 701.73 258.467 704.58 256.33C707.441 254.185 708.86 250.969 708.86 246.72H708.46C708.46 250.871 707.079 253.956 704.34 256.01C701.59 258.073 697.441 259.12 691.86 259.12V259.52ZM681.22 259.52H691.86V259.12H681.22V259.52ZM753.74 181.42H735.54V181.82H753.74V181.42ZM753.94 275V181.62H753.54V275H753.94ZM735.54 275.2H753.74V274.8H735.54V275.2ZM735.34 181.62V275H735.74V181.62H735.34ZM777.02 181.82H795.22V181.42H777.02V181.82ZM777.22 275V181.62H776.82V275H777.22ZM789.9 274.8H777.02V275.2H789.9V274.8ZM840.985 212.433L789.745 274.873L790.055 275.127L841.294 212.687L840.985 212.433ZM841.34 275V212.56H840.94V275H841.34ZM859.34 274.8H841.14V275.2H859.34V274.8ZM859.14 181.62V275H859.54V181.62H859.14ZM846.46 181.82H859.34V181.42H846.46V181.82ZM795.374 243.907L846.614 181.747L846.306 181.493L795.066 243.653L795.374 243.907ZM795.02 181.62V243.78H795.42V181.62H795.02ZM805.506 151.614L792.906 156.654L793.054 157.026L805.654 151.986L805.506 151.614ZM818.18 159.72C815.035 159.72 812.438 159.049 810.378 157.722C808.32 156.395 806.781 154.402 805.767 151.729L805.393 151.871C806.432 154.611 808.02 156.678 810.162 158.058C812.302 159.437 814.978 160.12 818.18 160.12V159.72ZM830.593 151.729C829.579 154.402 828.04 156.395 825.982 157.722C823.922 159.049 821.325 159.72 818.18 159.72V160.12C821.381 160.12 824.058 159.437 826.198 158.058C828.34 156.678 829.928 154.611 830.967 151.871L830.593 151.729ZM843.454 156.654L830.854 151.614L830.706 151.986L843.306 157.026L843.454 156.654ZM834.178 168.488C838.554 165.665 841.685 161.804 843.567 156.912L843.193 156.768C841.342 161.582 838.266 165.375 833.962 168.152L834.178 168.488ZM818.18 172.72C824.464 172.72 829.8 171.313 834.178 168.488L833.962 168.152C829.66 170.927 824.403 172.32 818.18 172.32V172.72ZM802.182 168.488C806.56 171.313 811.896 172.72 818.18 172.72V172.32C811.957 172.32 806.7 170.927 802.398 168.152L802.182 168.488ZM792.793 156.912C794.675 161.804 797.806 165.665 802.182 168.488L802.398 168.152C798.094 165.375 795.018 161.582 793.167 156.768L792.793 156.912ZM18.5999 360.82H81.5999V360.42H18.5999V360.82ZM18.7999 401.22V360.62H18.3999V401.22H18.7999ZM15.426 425.793C17.6796 420.065 18.7999 411.869 18.7999 401.22H18.3999C18.3999 411.851 17.2802 419.988 15.0538 425.647L15.426 425.793ZM9.21457 435.038C11.8532 432.635 13.9226 429.552 15.4256 425.794L15.0542 425.646C13.5705 429.355 11.5333 432.385 8.94524 434.742L9.21457 435.038ZM0.394021 438.52C3.62526 438.615 6.56762 437.448 9.21457 435.038L8.94524 434.742C6.36549 437.092 3.52124 438.212 0.405783 438.12L0.394021 438.52ZM0.599902 475V438.32H0.199902V475H0.599902ZM17.1999 474.8H0.399902V475.2H17.1999V474.8ZM16.9999 454V475H17.3999V454H16.9999ZM74.5999 453.8H17.1999V454.2H74.5999V453.8ZM74.7999 475V454H74.3999V475H74.7999ZM91.3999 474.8H74.5999V475.2H91.3999V474.8ZM91.1999 438.32V475H91.5999V438.32H91.1999ZM81.5999 438.52H91.3999V438.12H81.5999V438.52ZM81.3999 360.62V438.32H81.7999V360.62H81.3999ZM36.4399 401.22V376.3H36.0399V401.22H36.4399ZM33.207 427.331C35.3668 421.602 36.4399 412.893 36.4399 401.22H36.0399C36.0399 412.881 34.9663 421.531 32.8328 427.189L33.207 427.331ZM25.8792 438.464C29.0739 435.363 31.5162 431.652 33.2062 427.333L32.8337 427.187C31.1636 431.455 28.7526 435.117 25.6006 438.176L25.8792 438.464ZM63.3999 438.12H25.7399V438.52H63.3999V438.12ZM63.1999 376.3V438.32H63.5999V376.3H63.1999ZM36.2399 376.5H63.3999V376.1H36.2399V376.5ZM114.96 372.383C124.251 363.277 136.192 358.72 150.8 358.72V358.32C136.101 358.32 124.055 362.909 114.68 372.097L114.96 372.383ZM101.16 407.38C101.16 393.148 105.762 381.487 114.961 372.382L114.679 372.098C105.397 381.286 100.76 393.052 100.76 407.38H101.16ZM115.03 442.307C105.786 433.249 101.16 421.612 101.16 407.38H100.76C100.76 421.708 105.421 433.451 114.75 442.593L115.03 442.307ZM150.8 455.9C136.192 455.9 124.274 451.366 115.03 442.307L114.75 442.593C124.079 451.734 136.101 456.3 150.8 456.3V455.9ZM186.57 442.307C177.325 451.366 165.408 455.9 150.8 455.9V456.3C165.498 456.3 177.521 451.734 186.85 442.593L186.57 442.307ZM200.44 407.38C200.44 421.612 195.814 433.249 186.57 442.307L186.85 442.593C196.179 433.451 200.84 421.708 200.84 407.38H200.44ZM186.57 372.383C195.814 381.488 200.44 393.148 200.44 407.38H200.84C200.84 393.052 196.179 381.286 186.85 372.098L186.57 372.383ZM150.8 358.72C165.408 358.72 177.325 363.277 186.57 372.383L186.85 372.098C177.521 362.909 165.499 358.32 150.8 358.32V358.72ZM150.8 439.38C141.701 439.38 134.289 436.411 128.544 430.481L128.256 430.759C134.085 436.776 141.605 439.78 150.8 439.78V439.38ZM173.056 430.411C167.311 436.388 159.898 439.38 150.8 439.38V439.78C159.995 439.78 167.516 436.752 173.344 430.689L173.056 430.411ZM181.68 407.38C181.68 416.762 178.802 424.434 173.056 430.411L173.344 430.689C179.171 424.626 182.08 416.851 182.08 407.38H181.68ZM172.986 384.279C178.779 390.303 181.68 397.998 181.68 407.38H182.08C182.08 397.908 179.148 390.11 173.274 384.001L172.986 384.279ZM150.8 375.24C159.803 375.24 167.193 378.254 172.986 384.279L173.274 384.001C167.4 377.892 159.903 374.84 150.8 374.84V375.24ZM128.614 384.279C134.407 378.254 141.796 375.24 150.8 375.24V374.84C141.697 374.84 134.2 377.892 128.326 384.001L128.614 384.279ZM119.92 407.38C119.92 397.998 122.821 390.303 128.614 384.279L128.326 384.001C122.452 390.11 119.52 397.908 119.52 407.38H119.92ZM128.545 430.482C122.798 424.457 119.92 416.762 119.92 407.38H119.52C119.52 416.851 122.428 424.649 128.255 430.758L128.545 430.482ZM214.877 454.037L232.237 360.657L231.843 360.583L214.483 453.963L214.877 454.037ZM233.16 453.8H214.68V454.2H233.16V453.8ZM242.483 396.427L232.963 453.967L233.357 454.033L242.877 396.493L242.483 396.427ZM266.805 453.923L242.865 396.383L242.495 396.537L266.435 454.077L266.805 453.923ZM272.78 453.8H266.62V454.2H272.78V453.8ZM297.657 396.38L272.597 453.92L272.963 454.08L298.023 396.54L297.657 396.38ZM306.438 453.971L298.038 396.431L297.642 396.489L306.042 454.029L306.438 453.971ZM324.72 453.8H306.24V454.2H324.72V453.8ZM308.843 360.653L324.523 454.033L324.917 453.967L309.237 360.587L308.843 360.653ZM295.88 360.82H309.04V360.42H295.88V360.82ZM270.163 420.06L296.063 360.7L295.697 360.54L269.797 419.9L270.163 420.06ZM245.015 360.697L269.795 420.057L270.164 419.903L245.384 360.543L245.015 360.697ZM232.04 360.82H245.2V360.42H232.04V360.82Z" fill="white"/>
</svg>
