<svg width="54" height="55" viewBox="0 0 54 55" fill="none" xmlns="http://www.w3.org/2000/svg">
<path fill-rule="evenodd" clip-rule="evenodd" d="M0 6.875C0 10.6651 3.08393 13.75 6.875 13.75C10.3312 13.75 13.1921 11.1827 13.6714 7.85714H52.0536C52.5967 7.85714 53.0357 7.41813 53.0357 6.875C53.0357 6.33187 52.5967 5.89286 52.0536 5.89286H13.6714C13.1921 2.56732 10.3312 0 6.875 0C3.08393 0 0 3.08491 0 6.875ZM1.96429 6.875C1.96429 4.16723 4.16723 1.96429 6.875 1.96429C9.58277 1.96429 11.7857 4.16723 11.7857 6.875C11.7857 9.58277 9.58277 11.7857 6.875 11.7857C4.16723 11.7857 1.96429 9.58277 1.96429 6.875ZM46.1607 41.25C49.9508 41.25 53.0357 44.3349 53.0357 48.125C53.0357 51.9151 49.9508 55 46.1607 55C42.7046 55 39.8436 52.4327 39.3643 49.1071H0.982143C0.44 49.1071 0 48.6681 0 48.125C0 47.5819 0.44 47.1429 0.982143 47.1429H39.3643C39.8436 43.8173 42.7046 41.25 46.1607 41.25ZM51.0714 48.125C51.0714 50.8328 48.8685 53.0357 46.1607 53.0357C43.4529 53.0357 41.25 50.8328 41.25 48.125C41.25 45.4172 43.4529 43.2143 46.1607 43.2143C48.8685 43.2143 51.0714 45.4172 51.0714 48.125ZM52.0536 26.5179C52.5967 26.5179 53.0357 26.9569 53.0357 27.5C53.0357 28.0431 52.5967 28.4821 52.0536 28.4821H33.6914C33.1247 31.8214 30.2196 34.375 26.7212 34.375C23.2228 34.375 20.3166 31.8214 19.7499 28.4821H0.982143C0.44 28.4821 0 28.0431 0 27.5C0 26.9569 0.44 26.5179 0.982143 26.5179H19.688C20.077 22.9812 23.0813 20.2184 26.7212 20.2184C30.361 20.2184 33.3654 22.9802 33.7543 26.5179H52.0536ZM31.8352 27.2967C31.8352 30.1164 29.5409 32.4107 26.7212 32.4107C23.9014 32.4107 21.6071 30.1164 21.6071 27.2967C21.6071 24.477 23.9014 22.1827 26.7212 22.1827C29.5409 22.1827 31.8352 24.477 31.8352 27.2967Z" fill="white"/>
</svg>
