<svg width="55" height="55" viewBox="0 0 55 55" fill="none" xmlns="http://www.w3.org/2000/svg">
<path fill-rule="evenodd" clip-rule="evenodd" d="M44.5368 18.8219C44.7532 18.5482 44.795 18.1755 44.6432 17.8609C44.4914 17.5464 44.1741 17.3473 43.825 17.3473H30.7159L38.2823 1.37277C38.4159 1.09095 38.3959 0.760949 38.2287 0.497312C38.0632 0.234585 37.7732 0.074585 37.4614 0.074585H19.2796C18.8414 0.074585 18.465 0.387312 18.3859 0.818221L13.8405 25.3637C13.7914 25.6291 13.8623 25.9028 14.0359 26.11C14.2077 26.3182 14.4641 26.4382 14.7341 26.4382H25.2259L14.795 53.3828C14.6332 53.8019 14.8014 54.2764 15.1914 54.4991C15.3323 54.5809 15.4887 54.62 15.6423 54.62C15.9123 54.62 16.1768 54.5 16.355 54.2764L44.5368 18.8219ZM41.9414 19.1655L18.6459 48.4719L27.4005 25.8573C27.5087 25.5773 27.4723 25.2628 27.3032 25.0146C27.1332 24.7682 26.8523 24.62 26.5523 24.62H15.8268L20.0359 1.89277H36.025L28.4587 17.8673C28.325 18.1491 28.345 18.4791 28.5123 18.7428C28.6777 19.0055 28.9677 19.1655 29.2796 19.1655H41.9414ZM0.188655 26.4382H9.27956V28.2564H0.188655V26.4382ZM54.7341 26.4382H45.6432V28.2564H54.7341V26.4382ZM47.2726 6.70526L53.6358 0.342086L54.9214 1.62772L48.5582 7.9909L47.2726 6.70526ZM6.36655 45.7952L0.00337157 52.1583L1.28901 53.444L7.65218 47.0808L6.36655 45.7952ZM47.2715 47.9904L48.5571 46.7047L54.9203 53.0679L53.6347 54.3536L47.2715 47.9904ZM1.28564 0.340361L0 1.626L6.36318 7.98917L7.64881 6.70354L1.28564 0.340361Z" fill="white"/>
</svg>
