<svg width="43" height="55" viewBox="0 0 43 55" fill="none" xmlns="http://www.w3.org/2000/svg">
<path fill-rule="evenodd" clip-rule="evenodd" d="M41.4673 8.09856C41.965 8.09856 42.369 8.5025 42.369 9.0002V26.2071C42.369 35.6139 38.1403 44.5527 31.057 50.1195C28.2015 52.3636 25.117 53.9866 21.8882 54.945C21.8035 54.9703 21.7178 54.9829 21.6313 54.9829C21.5447 54.9829 21.4581 54.9703 21.3743 54.945C18.1455 53.9875 15.061 52.3636 12.2055 50.1195C5.12224 44.5536 0.893555 35.6139 0.893555 26.2071V8.9993C0.893555 8.5016 1.29749 8.09766 1.79519 8.09766C15.0448 8.09766 20.8811 1.27766 20.9388 1.20914C21.2814 0.798891 21.9802 0.797989 22.3228 1.20823C22.4067 1.30651 28.307 8.09856 41.4673 8.09856ZM40.5657 26.208V9.89192C29.5278 9.64668 23.5563 4.93651 21.6313 3.08905C19.7063 4.93561 13.7347 9.64668 2.69683 9.89192V26.208C2.69683 35.0657 6.66765 43.4762 13.3199 48.703C15.9194 50.7461 18.7145 52.2383 21.6313 53.14C24.5481 52.2374 27.3431 50.7461 29.9426 48.703C36.5949 43.4753 40.5657 35.0657 40.5657 26.208ZM22.138 8.10217C21.8323 7.89389 21.4302 7.89389 21.1245 8.10217C18.4061 9.94963 13.7645 12.33 7.09142 13.1811C6.6406 13.2388 6.30339 13.622 6.30339 14.0755V26.2089C6.30339 33.9693 9.75937 41.3186 15.5488 45.8682C17.3719 47.3009 19.3077 48.4244 21.3022 49.207C21.4086 49.2485 21.5195 49.2692 21.6313 49.2692C21.7431 49.2692 21.8549 49.2485 21.9604 49.207C23.953 48.4253 25.8897 47.3018 27.7146 45.8682C33.5031 41.3186 36.9591 33.9693 36.9591 26.2089V14.0755C36.9591 13.622 36.6219 13.2388 36.1711 13.1811C29.4981 12.33 24.8564 9.94963 22.138 8.10217ZM35.1558 14.8609C28.9354 13.9403 24.4489 11.7538 21.6313 9.92889C18.8136 11.7538 14.3271 13.9403 8.10667 14.8609V26.2071C8.10667 33.4193 11.3057 40.2384 16.6632 44.4491C18.2474 45.6942 19.9172 46.6833 21.6313 47.3938C23.3453 46.6842 25.0151 45.6942 26.6002 44.4491C31.9577 40.2393 35.1558 33.4202 35.1558 26.208V14.8609ZM19.7838 33.8286L13.2523 27.2972C12.8998 26.9446 12.3299 26.9446 11.9774 27.2972C11.6249 27.6497 11.6249 28.2195 11.9774 28.5721L19.1905 35.7852C19.36 35.9547 19.589 36.0494 19.828 36.0494H19.8577C20.1075 36.0413 20.3419 35.9295 20.506 35.7419L33.129 21.3157C33.4572 20.9406 33.4193 20.3717 33.0442 20.0435C32.6691 19.7153 32.1002 19.7541 31.772 20.1282L19.7838 33.8286Z" fill="white"/>
</svg>
