<svg width="43" height="55" viewBox="0 0 43 55" fill="none" xmlns="http://www.w3.org/2000/svg">
<path fill-rule="evenodd" clip-rule="evenodd" d="M42.9386 22.193H33.2894V11.1939C33.2894 5.0214 27.8792 0 21.228 0C14.5769 0 9.16663 5.0214 9.16663 11.1939V22.193H0.482422V55H42.9386V22.193ZM11.0965 22.193V11.1939C11.0965 6.0857 15.6412 1.92982 21.228 1.92982C26.8149 1.92982 31.3596 6.0857 31.3596 11.1939V22.193H11.0965ZM41.0087 53.0702V49.2105H2.41225V53.0702H41.0087ZM2.41225 47.2807V24.1228H41.0087V47.2807H2.41225ZM21.7105 29.9123C23.8391 29.9123 25.5701 31.6433 25.5701 33.7719V39.5614C25.5701 41.69 23.8391 43.4211 21.7105 43.4211C19.5819 43.4211 17.8508 41.69 17.8508 39.5614V33.7719C17.8508 31.6433 19.5819 29.9123 21.7105 29.9123ZM23.6403 33.7719V39.5614C23.6403 40.6257 22.7748 41.4912 21.7105 41.4912C20.6462 41.4912 19.7807 40.6257 19.7807 39.5614V33.7719C19.7807 32.7076 20.6462 31.8421 21.7105 31.8421C22.7748 31.8421 23.6403 32.7076 23.6403 33.7719Z" fill="white"/>
</svg>
