<svg width="55" height="51" viewBox="0 0 55 51" fill="none" xmlns="http://www.w3.org/2000/svg">
<path fill-rule="evenodd" clip-rule="evenodd" d="M54.9743 16.6503C54.9807 16.6127 54.9843 16.5761 54.9862 16.5376C54.988 16.4926 54.9871 16.4496 54.9834 16.4046C54.9798 16.3661 54.9743 16.3295 54.9651 16.2919C54.955 16.2479 54.9412 16.2057 54.9248 16.1636C54.9212 16.154 54.9188 16.1443 54.9165 16.1347C54.9134 16.122 54.9103 16.1095 54.9046 16.0976C54.9007 16.0893 54.8953 16.0821 54.8898 16.0748L54.8898 16.0748L54.8833 16.0659C54.8807 16.0622 54.8783 16.0585 54.8762 16.0545C54.8724 16.0473 54.8696 16.04 54.8668 16.0327C54.8634 16.024 54.8601 16.0153 54.8551 16.0068L45.6884 1.34014C45.6463 1.27322 45.5967 1.21272 45.5408 1.15955C45.5404 1.15909 45.5399 1.15886 45.5395 1.15864C45.539 1.15841 45.5385 1.15818 45.5381 1.15772C45.4593 1.08347 45.3658 1.0303 45.2658 0.988135C45.2597 0.985488 45.2545 0.981567 45.2494 0.977599C45.2438 0.973321 45.2381 0.968988 45.231 0.966135C45.2255 0.964137 45.2197 0.963772 45.214 0.963409C45.2092 0.963105 45.2044 0.962803 45.1998 0.961552C45.1073 0.930385 45.0119 0.909302 44.912 0.909302H10.0787C9.97967 0.909302 9.88525 0.930385 9.7945 0.960635C9.78994 0.961877 9.78539 0.962184 9.78092 0.962486C9.77549 0.962851 9.77019 0.963208 9.76517 0.965218C9.75773 0.967699 9.7519 0.972058 9.74608 0.976408L9.74608 0.97641C9.74114 0.980098 9.73622 0.983779 9.73033 0.986302C9.635 1.02572 9.54517 1.07705 9.46725 1.14672C9.46454 1.14943 9.46119 1.1515 9.45795 1.1535C9.45572 1.15488 9.45354 1.15622 9.45167 1.15772C9.39483 1.21089 9.34442 1.2723 9.30225 1.33922L0.135584 16.0059C0.130511 16.014 0.127122 16.023 0.123709 16.032C0.120955 16.0393 0.118185 16.0466 0.114501 16.0536C0.110618 16.0609 0.105721 16.0674 0.100859 16.0739L0.100856 16.0739C0.095388 16.0812 0.0899656 16.0884 0.0860841 16.0966C0.0806858 16.1079 0.0776521 16.1197 0.0745918 16.1317C0.0719359 16.142 0.0692599 16.1524 0.0650008 16.1626C0.0485008 16.2048 0.0347508 16.247 0.0246674 16.291C0.0164174 16.3286 0.0100008 16.3661 0.00633412 16.4046C-8.2551e-05 16.4496 -0.000999218 16.4936 0.000834116 16.5376C0.00266745 16.5761 0.00633412 16.6127 0.0127508 16.6503C0.0200841 16.6943 0.0320008 16.7374 0.0466674 16.7805C0.0585841 16.8162 0.0714175 16.8511 0.0879174 16.8859C0.0917542 16.8936 0.0944014 16.9016 0.0970577 16.9097C0.100113 16.919 0.103181 16.9284 0.108084 16.9372C0.116531 16.9525 0.127411 16.9657 0.138272 16.9789L0.138279 16.9789L0.138295 16.9789C0.146284 16.9886 0.154261 16.9982 0.161251 17.0087C0.166384 17.0164 0.170637 17.0244 0.17489 17.0324C0.18127 17.0444 0.18765 17.0564 0.197001 17.0674L26.7703 50.0546L26.7717 50.0565L26.7734 50.0586L26.7758 50.061L26.7803 50.0674C26.7831 50.0711 26.7877 50.072 26.7904 50.0756C26.8656 50.1664 26.9591 50.2351 27.0608 50.2901C27.0883 50.3048 27.114 50.3176 27.1424 50.3296C27.2533 50.3763 27.3707 50.4093 27.4935 50.4093C27.598 50.4093 27.7034 50.391 27.8079 50.3534C27.816 50.3505 27.8227 50.3457 27.8293 50.3408C27.8355 50.3363 27.8417 50.3317 27.8492 50.3286C27.8815 50.3153 27.9091 50.2963 27.937 50.277L27.9578 50.2627C27.9634 50.2589 27.969 50.2552 27.9748 50.2516C28.0444 50.2076 28.1095 50.1618 28.1636 50.1022C28.1696 50.0958 28.177 50.0909 28.1845 50.0861C28.1929 50.0806 28.2013 50.0752 28.2076 50.0674L54.7909 17.0674C54.7986 17.0577 54.8043 17.0471 54.81 17.0365L54.81 17.0364L54.817 17.0237C54.8199 17.0185 54.8231 17.0135 54.8267 17.0087C54.8334 16.9991 54.8408 16.9902 54.848 16.9813C54.8595 16.9673 54.8709 16.9535 54.8798 16.9372C54.8847 16.9284 54.8878 16.919 54.8909 16.9097C54.8935 16.9016 54.8962 16.8936 54.9 16.8859C54.9165 16.8511 54.9293 16.8171 54.9412 16.7805L54.9429 16.775C54.9552 16.7338 54.9672 16.6933 54.9743 16.6503ZM29.4203 2.74355H43.5911L39.1361 14.7015L29.4203 2.74355ZM17.5037 15.5769H37.4843L27.4935 3.28164L17.5037 15.5769ZM15.7868 14.7812L11.3877 2.74355H25.5676L15.7868 14.7812ZM27.3331 46.3824L38.1268 17.4102H16.7465L27.3331 46.3824ZM45.1192 3.89214L52.4223 15.5778H40.7659L45.1192 3.89214ZM14.1248 15.5769L9.85958 3.90405L2.56475 15.5769H14.1248ZM14.7949 17.4102L24.7307 44.6022L2.826 17.4102H14.7949ZM40.083 17.4102L29.6908 45.3044L52.161 17.4102H40.083Z" fill="white"/>
</svg>
