<svg xmlns="http://www.w3.org/2000/svg" width="14" height="14" viewBox="0 0 14 14">
  <defs>
    <style>
      .cls-1 {
        fill: #9b9fa6;
        fill-rule: evenodd;
      }
    </style>
  </defs>
  <path id="clock" class="cls-1" d="M866.95,613.05A7,7,0,1,0,869,618,6.954,6.954,0,0,0,866.95,613.05ZM862,623.634A5.634,5.634,0,1,1,867.634,618,5.64,5.64,0,0,1,862,623.634Zm2.33-4.1-1.765-1.764v-3.627a0.566,0.566,0,0,0-1.131,0V618a0.566,0.566,0,0,0,.166.4l1.93,1.93A0.566,0.566,0,1,0,864.33,619.53Z" transform="translate(-855 -611)"/>
</svg>
