<svg xmlns="http://www.w3.org/2000/svg" width="15" height="12" viewBox="0 0 15 12">
  <defs>
    <style>
      .cls-1 {
        fill: #9b9fa6;
        fill-rule: evenodd;
      }
    </style>
  </defs>
  <path id="see" class="cls-1" d="M1017.67,617.711a13,13,0,0,0-1.9-2.83,9.5,9.5,0,0,0-2.31-1.964,6.094,6.094,0,0,0-6.43,0,9.727,9.727,0,0,0-2.32,1.964,13.446,13.446,0,0,0-1.9,2.83,0.726,0.726,0,0,0,0,.578,13.475,13.475,0,0,0,1.9,2.83,9.727,9.727,0,0,0,2.32,1.964,6.094,6.094,0,0,0,6.43,0,9.5,9.5,0,0,0,2.31-1.964,13.022,13.022,0,0,0,1.9-2.83A0.652,0.652,0,0,0,1017.67,617.711Zm-7.43,5a6.21,6.21,0,0,1-4.62-2.448,12.4,12.4,0,0,1-1.57-2.258c0.57-1.066,2.79-4.706,6.19-4.706a6.227,6.227,0,0,1,4.63,2.447,12.468,12.468,0,0,1,1.57,2.259C1015.86,619.066,1013.64,622.706,1010.24,622.706Zm0-7.36a2.659,2.659,0,1,0,2.49,2.654A2.572,2.572,0,0,0,1010.24,615.346Zm0,4.014a1.363,1.363,0,1,1,1.28-1.36A1.319,1.319,0,0,1,1010.24,619.36Z" transform="translate(-1002.75 -612)"/>
</svg>
