<svg xmlns="http://www.w3.org/2000/svg" width="615" height="175" viewBox="0 0 123 35">
  <metadata><?xpacket begin="﻿" id="W5M0MpCehiHzreSzNTczkc9d"?>
<x:xmpmeta xmlns:x="adobe:ns:meta/" x:xmptk="Adobe XMP Core 5.6-c142 79.160924, 2017/07/13-01:06:39        ">
   <rdf:RDF xmlns:rdf="http://www.w3.org/1999/02/22-rdf-syntax-ns#">
      <rdf:Description rdf:about=""/>
   </rdf:RDF>
</x:xmpmeta>
                                                                                                    
                                                                                                    
                                                                                                    
                                                                                                    
                                                                                                    
                                                                                                    
                                                                                                    
                                                                                                    
                                                                                                    
                                                                                                    
                                                                                                    
                                                                                                    
                                                                                                    
                                                                                                    
                                                                                                    
                                                                                                    
                                                                                                    
                                                                                                    
                                                                                                    
                                                                                                    
                           
<?xpacket end="w"?></metadata>
<defs>
    <style>
      .cls-1 {
        fill: #2f343a;
        fill-rule: evenodd;
      }
    </style>
  </defs>
  <path id="NEW_logo_LUA_" data-name="NEW logo LUA " class="cls-1" d="M842.671,7626.01l6.158-14.75h3.027l6.158,14.75H842.671Zm7.576-10.43-2.684,7.31h5.714Zm-14.581,10.68a5.939,5.939,0,0,1-6.448-6.51v-8.54H832.6v7.82q0,4.065,3.065,4.06a2.266,2.266,0,0,0,2.04-.95,5.407,5.407,0,0,0,.624-2.92v-3.76h3.382v4.44A5.732,5.732,0,0,1,835.666,7626.26Zm-9.607-.12a2.056,2.056,0,0,1-1.555-.63,2.088,2.088,0,0,1-.6-1.52,1.878,1.878,0,0,1,.614-1.38,2.128,2.128,0,0,1,1.545-.61,1.9,1.9,0,0,1,1.407.61,1.926,1.926,0,0,1,.583,1.38,2.188,2.188,0,0,1-.562,1.51A1.835,1.835,0,0,1,826.059,7626.14Zm-8.973.12a8.033,8.033,0,0,1-5.841-2.06,7.484,7.484,0,0,1-2.1-5.57,7.609,7.609,0,0,1,2.053-5.44,7.173,7.173,0,0,1,5.46-2.19,7.552,7.552,0,0,1,4.846,1.54l-1.417,2.72a3.4,3.4,0,0,0-1.3-.78,4.977,4.977,0,0,0-1.725-.32,4.293,4.293,0,0,0-3.143,1.16,5.145,5.145,0,0,0,.022,6.57,4.261,4.261,0,0,0,3.185,1.21,4.66,4.66,0,0,0,1.333-.23,2.757,2.757,0,0,0,.994-0.51v-1.6H816.3v-3.16h6.328v6.58a6.8,6.8,0,0,1-2.539,1.51A8.658,8.658,0,0,1,817.086,7626.26ZM810.7,7638.1a2.732,2.732,0,0,1,1.362.36v1.32a1.945,1.945,0,0,0-1.409-.63,1.473,1.473,0,0,0-1.1.45,1.552,1.552,0,0,0-.427,1.15,1.642,1.642,0,0,0,.451,1.21,1.466,1.466,0,0,0,1.054.4,1.825,1.825,0,0,0,1.433-.64v1.3a2.819,2.819,0,0,1-1.516.39,2.457,2.457,0,0,1-1.895-.74,2.6,2.6,0,0,1-.711-1.88,2.656,2.656,0,0,1,.758-1.95A2.707,2.707,0,0,1,810.7,7638.1Zm-12.4-20.95v8.9H795.13v-14.84h2.711l7.03,8.95v-8.95h3.175v14.84h-2.71Zm-1.724,20.95a2.113,2.113,0,0,1,1.6.66,2.959,2.959,0,0,1,.7,2.13v0.14H795.3a1.528,1.528,0,0,0,.427,1.01,1.173,1.173,0,0,0,.888.32,1.263,1.263,0,0,0,.794-0.25,1.734,1.734,0,0,0,.461-0.55l0.972,0.55a2.443,2.443,0,0,1-.841.92,2.579,2.579,0,0,1-1.469.38,2.26,2.26,0,0,1-1.682-.64,2.6,2.6,0,0,1-.735-1.92,2.828,2.828,0,0,1,.794-2.06A2.244,2.244,0,0,1,796.582,7638.1Zm-1.2,1.97h2.31a1.2,1.2,0,0,0-.356-0.68,1.1,1.1,0,0,0-.781-0.28,1.083,1.083,0,0,0-.818.32A1.213,1.213,0,0,0,795.386,7640.07Zm-4.917-28.86h3.393v14.84h-3.393v-14.84Zm0.1,27.03h1.161v4.61a6.281,6.281,0,0,1-.166,1.6,1.969,1.969,0,0,1-.651,1.02,2.565,2.565,0,0,1-1.659.53,2.177,2.177,0,0,1-1.635-.62,2.628,2.628,0,0,1-.734-1.56h1.125a1.529,1.529,0,0,0,.368.79,1.163,1.163,0,0,0,.9.34,1.236,1.236,0,0,0,.912-0.33,1.739,1.739,0,0,0,.379-1.27v-0.65a1.806,1.806,0,0,1-1.516.71,2.138,2.138,0,0,1-1.647-.68,2.758,2.758,0,0,1-.746-1.99,2.628,2.628,0,0,1,.735-1.94,2.278,2.278,0,0,1,1.693-.7,1.829,1.829,0,0,1,1.481.69v-0.55Zm-0.4,1.27a1.256,1.256,0,0,0-.935-0.36,1.221,1.221,0,0,0-.877.34,1.664,1.664,0,0,0-.509,1.28,1.6,1.6,0,0,0,.5,1.26,1.31,1.31,0,0,0,.889.33,1.292,1.292,0,0,0,.971-0.4A1.874,1.874,0,0,0,790.162,7639.51Zm-9.4-13.46c-0.547,0-1.157-.01-1.83-0.02s-1.438-.02-2.293-0.02h-0.357v-14.73h0.294q0.946,0,2.1-.03c0.294,0,.62,0,0.978-0.01s0.634-.01.831-0.02,0.343-.01.441-0.01q4.145,0,6.205,2.07a7.088,7.088,0,0,1,2.062,5.24,7.248,7.248,0,0,1-2.209,5.41A8.6,8.6,0,0,1,780.766,7626.05Zm3.576-10.59a5.137,5.137,0,0,0-3.45-1.09,9.52,9.52,0,0,0-1.241.06v8.42c0.393,0.03.8,0.04,1.22,0.04a4.979,4.979,0,0,0,3.492-1.15,4.171,4.171,0,0,0,1.262-3.22A3.807,3.807,0,0,0,784.342,7615.46Zm-19.079,1.7v8.85h-3.175v-14.75H764.8l7.026,8.89v-8.89H775v14.75h-2.708Zm-13.556-5.95h3.006l6.119,14.84H745.588Zm1.408,4.35-3.026,7.36h5.887Zm-8.936,21.35a0.729,0.729,0,0,1-.533-0.21,0.791,0.791,0,0,1,0-1.08,0.781,0.781,0,0,1,1.066,0,0.788,0.788,0,0,1,0,1.08A0.729,0.729,0,0,1,744.179,7636.91ZM735,7611.21h3.35v11.66h5.968v3.18H735v-14.84Zm3.292,24.25a3.38,3.38,0,0,1,1.3.62,3.63,3.63,0,0,1,1.12,1.38,4.237,4.237,0,0,1,.4,1.83,3.8,3.8,0,0,1-2.89,3.81,6.668,6.668,0,0,1-1.587.16H735v-7.96h1.658A7.2,7.2,0,0,1,738.292,7635.46Zm-2.085,6.65h0.522a3.386,3.386,0,0,0,2.1-.56,2.686,2.686,0,0,0,1.078-2.26,2.952,2.952,0,0,0-.3-1.35,2.557,2.557,0,0,0-.764-0.95,3.582,3.582,0,0,0-2.108-.54h-0.522v5.66Zm8.553,1.15H743.6v-5.02h1.161v5.02Zm4.785,0.15a2.135,2.135,0,0,1-1.646-.68,2.754,2.754,0,0,1-.747-1.99,2.628,2.628,0,0,1,.735-1.94,2.28,2.28,0,0,1,1.694-.7,1.827,1.827,0,0,1,1.48.69v-0.55h1.161v4.61a6.281,6.281,0,0,1-.166,1.6,1.963,1.963,0,0,1-.651,1.02,2.561,2.561,0,0,1-1.659.53,2.174,2.174,0,0,1-1.634-.62,2.624,2.624,0,0,1-.735-1.56H748.5a1.528,1.528,0,0,0,.367.79,1.163,1.163,0,0,0,.9.34,1.236,1.236,0,0,0,.912-0.33,1.739,1.739,0,0,0,.379-1.27v-0.65A1.8,1.8,0,0,1,749.545,7643.41Zm1.587-2.63a1.677,1.677,0,0,0-.474-1.27,1.253,1.253,0,0,0-.935-0.36,1.221,1.221,0,0,0-.877.34,1.668,1.668,0,0,0-.509,1.28,1.6,1.6,0,0,0,.5,1.26,1.312,1.312,0,0,0,.889.33,1.291,1.291,0,0,0,.971-0.4A1.68,1.68,0,0,0,751.132,7640.78Zm4.324-5.37a0.729,0.729,0,0,1,.533.21,0.791,0.791,0,0,1,0,1.08,0.781,0.781,0,0,1-1.066,0,0.791,0.791,0,0,1,0-1.08A0.729,0.729,0,0,1,755.456,7635.41Zm0.58,7.85h-1.16v-5.02h1.16v5.02Zm2.689-6.86h1.161v1.84h0.888v1.07h-0.888v3.95h-1.161v-3.95H758.24v-1.07h0.485v-1.84Zm6.183,1.7a1.758,1.758,0,0,1,1.481.72v-0.58h1.161v5.02h-1.161v-0.53a1.853,1.853,0,0,1-1.493.68,2.182,2.182,0,0,1-1.758-.78,2.869,2.869,0,0,1-.658-1.89,2.618,2.618,0,0,1,.7-1.91A2.328,2.328,0,0,1,764.908,7638.1Zm-0.859,3.8a1.235,1.235,0,0,0,1,.46,1.375,1.375,0,0,0,1-.41,1.609,1.609,0,0,0,.408-1.17,1.652,1.652,0,0,0-.408-1.2,1.355,1.355,0,0,0-1-.43,1.244,1.244,0,0,0-1,.47A1.884,1.884,0,0,0,764.049,7641.9Zm7.315,1.36H770.2v-8.7h1.161v8.7Zm13.586,0h-1.3l-0.829-1.92h-3.376l-0.864,1.92h-1.3l3.932-8.42Zm-5.01-3.07h2.393l-1.173-2.69Zm22.482-1.49a1.728,1.728,0,0,1,1.351-.6,1.674,1.674,0,0,1,1.468.69,2.435,2.435,0,0,1,.308,1.39v3.08h-1.16v-2.79a3.072,3.072,0,0,0-.072-0.74,0.663,0.663,0,0,0-.225-0.4,0.759,0.759,0,0,0-.278-0.15,1.507,1.507,0,0,0-.338-0.03,1.38,1.38,0,0,0-.4.05,0.758,0.758,0,0,0-.32.19,0.939,0.939,0,0,0-.255.51,4.423,4.423,0,0,0-.083.95v2.41h-1.161v-5.02h1.161v0.46Zm12.675-.46,1.421,2.93,1.445-2.93h1.3l-3.968,7.75H814l1.836-3.52-2.132-4.23h1.4Z" transform="translate(-735 -7611)"/>
</svg>
