<svg xmlns="http://www.w3.org/2000/svg" width="369.999" height="214" viewBox="0 0 369.999 214">
  <metadata><?xpacket begin="﻿" id="W5M0MpCehiHzreSzNTczkc9d"?>
<x:xmpmeta xmlns:x="adobe:ns:meta/" x:xmptk="Adobe XMP Core 5.6-c142 79.160924, 2017/07/13-01:06:39        ">
   <rdf:RDF xmlns:rdf="http://www.w3.org/1999/02/22-rdf-syntax-ns#">
      <rdf:Description rdf:about=""/>
   </rdf:RDF>
</x:xmpmeta>
                                                                                                    
                                                                                                    
                                                                                                    
                                                                                                    
                                                                                                    
                                                                                                    
                                                                                                    
                                                                                                    
                                                                                                    
                                                                                                    
                                                                                                    
                                                                                                    
                                                                                                    
                                                                                                    
                                                                                                    
                                                                                                    
                                                                                                    
                                                                                                    
                                                                                                    
                                                                                                    
                           
<?xpacket end="w"?></metadata>
<defs>
    <style>
      .cls-1 {
        fill: #404a50;
        fill-rule: evenodd;
      }
    </style>
  </defs>
  <path id="OZONе_BOX" data-name="OZONе BOX" class="cls-1" d="M992.723,275.148a3.029,3.029,0,0,0,1.927,1.965,14.872,14.872,0,0,0,4.564.5h4.966a14.911,14.911,0,0,0,11.62-4.886q4.41-4.885,6.23-16.573h2.34q-0.315,3.326-.31,8.464a136.259,136.259,0,0,0,.71,15.312q-6.9-.3-23.22-0.3-22.116,0-33.066.3v-2.015a17.8,17.8,0,0,0,4.919-.805,3.5,3.5,0,0,0,2.129-2.318,19.657,19.657,0,0,0,.558-5.541V219.288a19.671,19.671,0,0,0-.558-5.541,3.494,3.494,0,0,0-2.129-2.317,17.78,17.78,0,0,0-4.919-.807v-2.015q10.953,0.3,33.066.3,14.91,0,21.19-.3-0.705,8.365-.71,14.911a58.935,58.935,0,0,0,.31,6.85h-2.33q-1.53-10.781-5.48-15.111t-11.16-4.332h-4.156a14.865,14.865,0,0,0-4.564.5,3.034,3.034,0,0,0-1.927,1.964,15.546,15.546,0,0,0-.507,4.685v24.982h3.246a9.388,9.388,0,0,0,8.168-3.927,24.553,24.553,0,0,0,3.9-9.37h2.33q-0.3,4.231-.3,9.469v4.836q0,5.138.61,14.305h-2.34q-2.13-13.3-12.368-13.3h-3.246v25.387A15.537,15.537,0,0,0,992.723,275.148Zm-40.617-62.812a6.254,6.254,0,0,0-2.13,3.828,40.093,40.093,0,0,0-.558,7.757v56.214l-2.434-.1-2.738.1-44.017-55.408v38.685a44.665,44.665,0,0,0,.609,8.714,5.981,5.981,0,0,0,2.637,4.029,16.487,16.487,0,0,0,6.592,1.763v2.015q-3.956-.3-10.953-0.3-5.58,0-8.824.3v-2.015a10.8,10.8,0,0,0,4.919-1.713,6.262,6.262,0,0,0,2.13-3.828,40.158,40.158,0,0,0,.557-7.756V219.288a19.68,19.68,0,0,0-.557-5.541,3.5,3.5,0,0,0-2.13-2.317,17.78,17.78,0,0,0-4.919-.807v-2.015q3.245,0.3,8.824.3,5.07,0,8.722-.3l39.25,48.054V225.131a44.7,44.7,0,0,0-.609-8.715,6,6,0,0,0-2.637-4.03,16.586,16.586,0,0,0-6.592-1.763v-2.015q3.955,0.3,10.953.3,5.679,0,8.824-.3v2.015A10.826,10.826,0,0,0,952.106,212.336ZM887.731,391.628a54,54,0,0,1-20.87,21.8q-13.387,7.767-30.514,7.763-17.629,0-30.848-7.1a49.758,49.758,0,0,1-20.537-20.563q-7.32-13.463-7.317-32.128,0-18.168,7.483-32.21a54.029,54.029,0,0,1,20.87-21.8q13.385-7.761,30.515-7.764,17.623,0,30.847,7.1A49.806,49.806,0,0,1,887.9,327.292q7.315,13.463,7.317,32.126Q895.214,377.589,887.731,391.628Zm-24.362-61.777q-4.24-13.046-11.474-20.151t-16.047-7.1q-9.148,0-16.131,7.35t-10.726,20.565a111.2,111.2,0,0,0-3.741,30.228q0,17.181,4.24,30.226t11.475,20.152q7.233,7.1,16.047,7.1,9.143,0,16.13-7.349t10.726-20.566a111.175,111.175,0,0,0,3.742-30.228Q867.61,342.9,863.369,329.851Zm-2.542-53.242a36.419,36.419,0,0,1-18.611,4.733,39.147,39.147,0,0,1-18.813-4.331,30.342,30.342,0,0,1-12.525-12.542q-4.466-8.209-4.463-19.594a41.13,41.13,0,0,1,4.564-19.645,32.94,32.94,0,0,1,12.728-13.3,36.405,36.405,0,0,1,18.611-4.735,39.184,39.184,0,0,1,18.813,4.331,30.385,30.385,0,0,1,12.526,12.542q4.461,8.212,4.462,19.594a41.118,41.118,0,0,1-4.564,19.645A32.939,32.939,0,0,1,860.827,276.609Zm-2.13-50.975q-2.586-7.957-7-12.29a13.691,13.691,0,0,0-9.787-4.332,13.2,13.2,0,0,0-9.838,4.483q-4.26,4.483-6.541,12.543a67.773,67.773,0,0,0-2.282,18.435,59.681,59.681,0,0,0,2.586,18.434q2.586,7.959,7,12.291a13.68,13.68,0,0,0,9.787,4.331,13.2,13.2,0,0,0,9.838-4.482q4.26-4.481,6.542-12.542a67.817,67.817,0,0,0,2.281-18.436A59.706,59.706,0,0,0,858.7,225.634Zm-91.531,54q-18.864,0-27.282.3v-2.015l34.787-66.992H763.718q-8.317,0-13.641,4.734t-6.643,15.918H741.1q0.3-2.922.3-7.657,0-6.747-.71-15.313,6.693,0.3,22.819.3,19.98,0,28.9-.3v2.015l-34.686,66.993h10.548a21.017,21.017,0,0,0,14.047-5.239q6.135-5.236,7.353-16.622h2.332q-0.3,3.426-.3,8.866a135.31,135.31,0,0,0,.71,15.312Q784.912,279.63,767.166,279.631Zm-27.019,66.242q-8.4,8.262-24.861,11.232v0.332q21.615,1.651,31.762,9.909t10.144,19.492q0,15.36-12.14,23.7T711.3,418.882q-4.826,0-8.149-.165-10.976-.328-21.451-0.331-17.13,0-25.61.5v-3.3a28.97,28.97,0,0,0,8.066-1.322,5.729,5.729,0,0,0,3.492-3.8,32.257,32.257,0,0,0,.914-9.085V319.445a32.285,32.285,0,0,0-.914-9.085,5.735,5.735,0,0,0-3.492-3.8,29.084,29.084,0,0,0-8.066-1.322v-3.3q8.481,0.5,25.277.5l18.458-.165q3.326-.163,7.65-0.165,19.955,0,30.515,7.1t10.559,18.831Q748.544,337.616,740.147,345.873ZM695,401.373a33.435,33.435,0,0,0,.831,8.755,5.78,5.78,0,0,0,3.243,3.881,19.151,19.151,0,0,0,7.4,1.074q23.112,0,23.115-28.906,0-13.047-6.652-19.822t-20.953-6.772H695v41.79Zm22.7-90.021q-3.909-6.109-12.389-6.112-4.489,0-6.568,1.157a6.394,6.394,0,0,0-2.911,4.128,35.483,35.483,0,0,0-.831,8.92v37.33h7.151q10.808,0,15.132-7.35t4.324-19.574Q721.605,317.463,717.7,311.352Zm-8.492-34.743a36.424,36.424,0,0,1-18.611,4.733,39.151,39.151,0,0,1-18.814-4.331,30.348,30.348,0,0,1-12.525-12.542q-4.464-8.209-4.463-19.594a41.141,41.141,0,0,1,4.564-19.645,32.936,32.936,0,0,1,12.729-13.3A36.4,36.4,0,0,1,690.7,207.2a39.188,39.188,0,0,1,18.814,4.331,30.388,30.388,0,0,1,12.525,12.542q4.462,8.212,4.463,19.594a41.118,41.118,0,0,1-4.564,19.645A32.952,32.952,0,0,1,709.205,276.609Zm-2.13-50.975q-2.586-7.957-7-12.29a13.691,13.691,0,0,0-9.787-4.332,13.2,13.2,0,0,0-9.838,4.483q-4.26,4.483-6.542,12.543a67.812,67.812,0,0,0-2.282,18.435,59.681,59.681,0,0,0,2.586,18.434q2.587,7.959,7,12.291A13.679,13.679,0,0,0,691,279.529a13.2,13.2,0,0,0,9.837-4.482q4.26-4.481,6.542-12.542a67.815,67.815,0,0,0,2.282-18.436A59.706,59.706,0,0,0,707.075,225.634Zm222.73,76.8q14.468,0,25.442-.66v3.468a31.546,31.546,0,0,0-8.148.743q-2.495.744-2.494,2.395a5.635,5.635,0,0,0,1.33,3.139l24.778,36.008,12.305-16.516q7.815-10.24,7.816-16.684a7.535,7.535,0,0,0-3.16-6.441q-3.16-2.313-8.979-2.644v-3.3q9.478,0.5,20.953.5,9.978,0,15.3-.5v3.3a28.552,28.552,0,0,0-10.73,6.112,65.675,65.675,0,0,0-10.226,11.231l-21.119,28.08,38.915,56.492a34.26,34.26,0,0,0,5.32,6.441,8.768,8.768,0,0,0,5.32,1.817v3.469q-17.295-.657-22.782-0.661-5.325,0-23.281.5a29.392,29.392,0,0,1-3.492.165v-3.469a42.444,42.444,0,0,0,8.48-.578q2.495-.576,2.5-2.231a5.233,5.233,0,0,0-1.164-2.806L954.749,369l-13.3,18q-7.65,10.243-7.649,17.344a9.555,9.555,0,0,0,3.741,8.011q3.743,2.892,10.393,3.22v3.3q-9.478-.5-26.274-0.5-9.976,0-15.3.5v-3.3q11.475-3.631,24.113-20.152l22.117-29.566L916.667,313.5a30.854,30.854,0,0,0-5.321-6.525,9.151,9.151,0,0,0-5.321-1.734v-3.468a28.032,28.032,0,0,1,3.326.165Q925.314,302.432,929.805,302.432Z" transform="translate(-654.781 -207.188)"/>
</svg>
